<svg id="Layer_1" data-name="Layer 1" xmlns="http://www.w3.org/2000/svg" viewBox="0 0 812 334.78"><defs><style>.cls-1{fill:#231f20;}</style></defs><path class="cls-1" d="M146.36,199.8V53.34h62.28c24.86,0,41.6,18,41.6,39.88,0,17.23-12.06,33-31.51,38.15,8.86,6.4,14.52,16.74,14.52,29.54,0,21.17-17.72,38.89-41.84,38.89Zm13.3-133.66v53.91h45.78c19.2,0,31.26-12.31,31.26-26.83s-11.32-27.08-27.81-27.08Zm0,66.71V187h32.49c15.26,0,27.81-12.06,27.81-26.83s-11.32-27.32-28.06-27.32Z"/><path class="cls-1" d="M294.56,186.51a35.65,35.65,0,0,0,12.56,2.21c14.52,0,26.58-4.92,40.37-26.09l14.27-22.4,10.34,6.65-14.28,21.9c-17.23,25.85-32.73,32-50.21,32-26.59,0-49.72-19.93-49.72-49.47,0-29,23.38-49.72,49.72-49.72a51.85,51.85,0,0,1,36.18,14.52Zm-11.07-6.16,43.81-62a42.29,42.29,0,0,0-19.69-5.41c-20.43,0-37.17,16-37.17,38.4A37.93,37.93,0,0,0,283.49,180.35Z"/><path class="cls-1" d="M541.47,199.8H529.65V126c0-7.39-2.21-11.82-8.61-11.82-6.65,0-9.36,4.92-13.54,11.82l-47.32,72.63h-.24l-10-7.09V126c0-7.39-2.46-11.82-8.86-11.82s-9.35,4.92-13.54,11.82L381,201.52l-10.83-6.89,46.52-75.07c7.63-12.31,15-18,25.85-18,14,0,20.18,9.84,20.18,23.38V174.2l34-54.64c7.63-12.31,15-18,25.6-18,14.27,0,20.18,9.84,20.18,23.38v50"/><path class="cls-1" d="M163.52,123.42c11.07,0,21.08,3.88,28.19,10.93a36.54,36.54,0,0,1,10.67,26.21c0,16.55-11.85,30.82-29.48,35.51l-5.57,1.48,4.68,3.38c8.63,6.23,13.39,15.94,13.39,27.32,0,20.27-17.18,36.16-39.12,36.16H104v-141h59.55m-51.72,66.7h48.52c19.69,0,34-12.43,34-29.56,0-16.72-13.42-29.82-30.55-29.82h-52v59.38m0,67H147c16.85,0,30.55-13.27,30.55-29.57,0-17.13-13.24-30.06-30.79-30.06h-35v59.63m51.72-136.4H101.24V267.14h45c24.13,0,41.85-17.72,41.85-38.89,0-12.8-5.66-23.14-14.52-29.54,19.44-5.17,31.51-20.92,31.51-38.15,0-21.91-16.74-39.88-41.6-39.88Zm-49,66.71V133.48h49.23c16.49,0,27.82,12.55,27.82,27.08s-12.06,26.83-31.26,26.83Zm0,67V200.19h32.25c16.74,0,28.06,12.55,28.06,27.32S162.28,254.34,147,254.34Z"/><path class="cls-1" d="M294.44,172.65v79l5.06-8.23,42.66-69.35,6.11,3.62-53.6,86.67h-7.81V193.29l-4.72,5c-3.77,4-8.55,5.79-15.49,5.79-7.25,0-13.46-3.37-16.41-6.71l-4-4.48-.8,5.93c-1.15,8.47-4.28,14.66-10.45,24.53l-24.61,39.94-6.26-4.13,23.45-37.85c9.64-15.36,13-25.85,13.22-41.57v-7.11h6.1v2.92c0,12.86,8.61,22.18,20.46,22.18s20.46-9.22,20.46-21.93v-3.17h6.59m2.73-2.74H285.11v5.91c0,11.32-7.63,19.2-17.72,19.2s-17.72-7.88-17.72-19.45v-5.66H238.1v9.85c-.25,15.75-3.7,25.6-12.8,40.12L200.44,260l10.83,7.14,26.09-42.34c6.15-9.84,9.6-16.49,10.83-25.6,3.69,4.19,10.83,7.63,18.46,7.63,8.37,0,13.54-2.46,17.48-6.64v66.95h12.06l55.88-90.34-10.83-6.4L297.17,242V169.91Z"/><path class="cls-1" d="M393.19,136.22a6.26,6.26,0,1,1,0,12.49,6.25,6.25,0,0,1,0-12.49m1.94,36.43v72.09c0,8.84,3.24,13.32,9.63,13.32,6.91,0,10.64-6,13.92-11.38l.46-.74,44.33-71,6,3.74L425.06,250c-6.79,11.24-12.56,15.42-21.29,15.42-14.19,0-15.72-12.55-15.72-17.94V184.58L383,192.85l-44.08,72-5.73-3.69,54.41-88.47h7.55m-1.94-39.17a9,9,0,1,0,9.35,9.11,9.14,9.14,0,0,0-9.35-9.11Zm4.68,36.43H386.05L329.43,262l10.34,6.65,45.54-74.34v53.17c0,10.58,4.92,20.68,18.46,20.68,10.83,0,17.23-6.16,23.63-16.74l45.79-73.6-10.59-6.65L416.82,244.5c-3.2,5.17-6.4,10.83-12.06,10.83-5.91,0-6.89-5.17-6.89-10.59V169.91Z"/><path class="cls-1" d="M558.6,99.78c7.67,0,14.14,2.18,18.73,6.29s7.09,10.15,7.09,17.32c0,8.76-3.57,16.43-13.18,28.31l-31.51,39.14-.6.75v53.89c0,11,5.88,12.58,9.38,12.58,7.39,0,10.94-5.87,14.38-11.54l.5-.82,44.1-70.81,6.17,3.79-44.33,71c-7,11.26-12.78,15.45-21.31,15.45-14.59,0-15.73-13.36-15.73-17.45v-51l-4.91,6.47L481,264.34l-5.41-3.92,56.14-73.09.56-.74V129.54c0-18.35,10.08-29.76,26.31-29.76m-19.47,81.77,4.89-6.26,24.63-31.53c5.6-7.28,8.44-13.8,8.44-19.39,0-10.71-7.77-18.49-18.49-18.49-11.46,0-19.47,8.82-19.47,21.45v54.22m19.47-84.5c-18,0-29,13-29,32.49v56.12L471.71,261l9.85,7.14,48-63.27V247.7c0,10.58,5.41,20.18,18.46,20.18,10.34,0,16.74-5.66,23.63-16.74l45.78-73.35-10.83-6.65-45.53,73.11c-3.45,5.66-6.4,11.08-12.56,11.08-4.68,0-6.64-3.7-6.64-9.85V192.56l31.5-39.14c9.36-11.57,13.79-19.94,13.79-30,0-16.49-11.82-26.34-28.56-26.34ZM541.87,173.6V127.33c0-10.83,6.64-18.71,16.73-18.71,8.87,0,15.76,6.15,15.76,15.75,0,5.17-3,11.33-7.88,17.73l-24.61,31.5Z"/><path class="cls-1" d="M680.94,99.78c7.67,0,14.14,2.18,18.73,6.29s7.09,10.15,7.09,17.32c0,8.76-3.57,16.43-13.18,28.31l-31.51,39.14-.6.75v53.89c0,11,5.88,12.58,9.38,12.58,7.39,0,10.94-5.87,14.38-11.54l.49-.82,44.11-70.81,6.16,3.79-44.32,71c-7,11.26-12.79,15.45-21.31,15.45-14.6,0-15.73-13.36-15.73-17.45v-51l-4.91,6.47-46.39,61.13-5.4-3.92,56.13-73.09.57-.74V129.54c0-18.35,10.08-29.76,26.31-29.76m-19.47,81.77,4.89-6.26L691,143.76c5.6-7.28,8.44-13.8,8.44-19.39,0-10.71-7.77-18.49-18.49-18.49-11.46,0-19.47,8.82-19.47,21.45v54.22m19.47-84.5c-18,0-29,13-29,32.49v56.12L594.05,261l9.85,7.14,48-63.27V247.7c0,10.58,5.41,20.18,18.46,20.18,10.34,0,16.74-5.66,23.63-16.74l45.78-73.35-10.83-6.65L683.4,244.25c-3.44,5.66-6.4,11.08-12.55,11.08-4.68,0-6.65-3.7-6.65-9.85V192.56l31.51-39.14c9.36-11.57,13.79-19.94,13.79-30,0-16.49-11.82-26.34-28.56-26.34ZM664.2,173.6V127.33c0-10.83,6.65-18.71,16.74-18.71,8.86,0,15.76,6.15,15.76,15.75,0,5.17-3,11.33-7.88,17.73L664.2,173.6Z"/></svg>