<svg xmlns="http://www.w3.org/2000/svg" viewBox="0 0 74.07 74.36"><defs><style>.cls-1{fill:#ff6542;}.cls-2{fill:#fff;}.cls-3{fill-rule:evenodd;}</style></defs><g id="Layer_2" data-name="Layer 2"><g id="Layer_1-2" data-name="Layer 1"><path class="cls-1" d="M1.48,11.36c-2.28,2.37-1.92,7.88,1,24.76,3.27,18.63,5,28,7.44,31,7.52,9.08,21.32,9.49,28.72,1.91,5.27-5.42,3.09-10.6,9.29-18.5,7-8.92,11.91-5.1,18.39-13.34,5.82-7.41,10.16-21.1,6.19-29.38C69,.36,60.08.23,58.29.2,55,.15,53.51,1.11,40.73,7.28c-12.07,5.82-13.2,6.15-15.08,6.25S19.41,13,11,11.63C3.77,10.48,2.63,10.16,1.48,11.36Z"/><path class="cls-2" d="M56.05.2c6.27,0,11.07,3.17,13.1,8a13.15,13.15,0,0,1-2.82,14.47q-13,13-26,26-4.73,4.72-9.45,9.46a1.7,1.7,0,0,1-1.87.54,1.61,1.61,0,0,1-.57-2.71c1.53-1.56,3.08-3.09,4.62-4.63Q48.55,35.85,64,20.39a9.9,9.9,0,1,0-14-14Q39.81,16.56,29.61,26.77L7.08,49.3a7.79,7.79,0,0,0,2.94,13,7.49,7.49,0,0,0,8.09-1.92Q28.53,50,38.91,39.56c3.66-3.67,7.34-7.32,11-11a5.71,5.71,0,1,0-8.1-8q-7.57,7.57-15.16,15.16L17.5,44.81a1.61,1.61,0,0,1-2,.38,1.55,1.55,0,0,1-.79-1.81,2.48,2.48,0,0,1,.6-.94Q20.62,37.06,26,31.71c4.51-4.52,9-9,13.55-13.53A8.51,8.51,0,0,1,48.64,16a8.49,8.49,0,0,1,6.1,7,8.56,8.56,0,0,1-2.54,7.87Q42.9,40.2,33.57,49.51c-4.38,4.38-8.74,8.79-13.16,13.14A10.58,10.58,0,0,1,9.47,65.48a10.43,10.43,0,0,1-7.69-8.13,10.48,10.48,0,0,1,2.9-10.24Q26.22,25.51,47.81,4A12.26,12.26,0,0,1,56.05.2Z"/><path class="cls-3" d="M39.5,22.36s.49-.5.35-.39l.54-.54c.1-.08-.69.72-.17.2C40.17,21.7,39.77,22.09,39.5,22.36Zm-2.32,2.39c0-.05.36-.36.36-.38A3.13,3.13,0,0,1,37.9,24c.29-.28,1.05-1.06.9-.88Zm2.32-2.41-.9.9A10.66,10.66,0,0,1,39.5,22.34Zm-10,10.17c.42-.43.33-.35.89-.9.34-.33.11-.14.36-.39l1.79-1.8c.58-.56-.31.33-.53.55.06,0,.62-.61.54-.5.34-.33.11-.14.36-.39,1-1,1.19-1.16,1.62-1.56s1.11-1.12,1.44-1.43c-.8.83-2.06,2-2.88,2.84.12-.1.42-.4.37-.33l-1,.95A4,4,0,0,1,32,30c-1,1-1.66,1.69-2.51,2.54a2.77,2.77,0,0,0-.36.34c0,.06.61-.59.37-.31-.58.57-.79.8-1.25,1.27L27.15,34.9l.35-.36c.6-.62.43-.52,1.42-1.52-.44.46-.32.38-.7.77,0,0,.33-.32.54-.52l.34-.42C29.49,32.46,29.45,32.52,29.47,32.51Zm6.44-6.57A11.83,11.83,0,0,1,36.8,25S36.35,25.5,35.91,25.94ZM32,29.89l.36-.36c.57-.58.56-.54.9-.88,1.58-1.58-.27.27-.54.55S31.93,29.94,32,29.89Zm2.69-2.71.72-.71c-.21.22-.95,1-.71.76C34.26,27.62,34.51,27.33,34.65,27.18Zm2.17-2.07c.5-.49,0,0-.35.37l1.44-1.41-1.26,1.26c-.06,0-.63.61-.55.5C36.44,25.48,36.71,25.25,36.82,25.11Zm3.77-3.78a16.47,16.47,0,0,1-1.26,1.25ZM59.92,3.79c-.27-.06.75.25,1.18.46-.18-.1-1.14-.41-1.19-.45a4.92,4.92,0,0,0-.52-.1,10.48,10.48,0,0,0-2-.29c-.1,0,.1,0,0,0h-.87c-.33,0-.54,0-.15,0a6.49,6.49,0,0,1,1.52,0,10.57,10.57,0,0,1,1.52.24,6.16,6.16,0,0,0-1.51-.25,9,9,0,0,0-2.84.15A10.09,10.09,0,0,0,51.8,4.85a9.94,9.94,0,0,1,5.8-1.48,9.84,9.84,0,0,1,5.5,2.05L62.5,5c-.27-.16-.58-.36-.91-.53A9.76,9.76,0,0,0,59.92,3.79ZM66.1,9c.08.15.23.47.38.83s.27.79.35,1.11.07.25.19,1c0,.22-.09-.49-.29-1.27A11.37,11.37,0,0,0,66.1,9ZM64.88,7c-.13-.13-.29-.29,0,0s.38.49.17.2c.15.2.34.44.53.74s.38.64.56,1h0a10.53,10.53,0,0,0-3.56-4,8.28,8.28,0,0,0-1.82-1c-.29-.12-.09,0,0,0a8.34,8.34,0,0,0-2-.57,4,4,0,0,1,.89.18c.47.11.88.3.63.19a3.93,3.93,0,0,1,.93.4,2.63,2.63,0,0,1,.68.36,7.56,7.56,0,0,1,.87.55,3.4,3.4,0,0,0,.4.31c.22.15.1.06,0,0a7.74,7.74,0,0,0-1.06-.73l.24.13c-.37-.26-1.33-.7-1.12-.63A9.65,9.65,0,0,1,63.4,5.52l.77.69Zm-.37-.38a6.34,6.34,0,0,0-.91-.9C63.35,5.52,64.38,6.45,64.51,6.62ZM38.27,23.71l1.62-1.59c-.49.52-1,1-1.44,1.43s-1.15,1.2-1.61,1.63.47-.47.89-.9S38.09,23.9,38.27,23.71ZM67.12,14c-.05,1-.42,2.26-.11.75C66.92,15.64,67.13,13.85,67.12,14ZM67,11.91a9.22,9.22,0,0,1,.1,1.29c0,.19,0-.24,0-.66A2.92,2.92,0,0,1,67,11.91ZM41.12,20.74l-.54.54v0l.54-.54C40.81,21,41.13,20.7,41.12,20.74ZM58,3.28a10.1,10.1,0,0,1,1.31.18A10,10,0,0,1,62,4.5a9.77,9.77,0,0,1,2.06,1.55A10.22,10.22,0,0,0,59.82,3.6,11.33,11.33,0,0,0,58,3.28ZM6.59,60.56a7.68,7.68,0,0,1-2-3.71c0,.11.13.43.24.81a10.38,10.38,0,0,0,.53,1.18A7.68,7.68,0,0,0,6.59,60.56ZM27.48,34.45c.78-.78-.31.26.54-.58a4.16,4.16,0,0,1-.37.34l.9-.89c.31-.3,1-1.06.9-.88l-.9.89c-.39.38,0,.05,0,0-.12.14-.81.81-.53.57l-1.62,1.62a1,1,0,0,0,.17-.21C26.85,35.08,27.51,34.4,27.48,34.45ZM53.2,4a7.79,7.79,0,0,1,1.48-.49l.26-.06a11.2,11.2,0,0,1,1.81-.23,4.71,4.71,0,0,1,1,0,8.82,8.82,0,0,0-2.34.12A9.47,9.47,0,0,0,53.2,4Zm2.32,29.49c.26-.23-1.6,1.66-1.44,1.44.36-.36.24-.21.73-.7s-.21.18-.37.33c-.78.78-.43.49-1.25,1.3.12-.15.75-.82,1.43-1.49ZM40.61,48.32a13.56,13.56,0,0,1-1.08,1.06c.34-.34.33-.3.9-.88.13-.16-.73.72-.55.5.48-.48,1.75-1.7,1.44-1.44a10.72,10.72,0,0,1,.9-.87c-.21.22-.5.51-.72.72l-.17.2Zm2.72-2.58-2.69,2.7c.23-.25.46-.5.34-.42.6-.61.29-.25.37-.31.48-.48.21-.23.35-.39s.42-.43.36-.36c.08-.09,0-.07-.18.15a1.19,1.19,0,0,0-.18.19c-.18.17-.74.69-1.08,1.05.19-.22.91-.94,1.07-1.08l1.8-1.8s-.6.62-1.08,1.09v0c.7-.71.71-.75,1.43-1.45.21-.21.15-.16.18-.2.49-.5.36-.35.72-.7.51-.51.34-.38,1.07-1.09,0,0-.5.54-1.07,1.11a7.54,7.54,0,0,0-.7.77c-.68.69,0,0-.73.69C43.1,46,43.15,45.92,43.33,45.74Zm9.83-10c.25-.27.35-.34.73-.71l.71-.73L55.86,33c-.46.51-1.26,1.24-2,2Zm-2.5,2.53c-.09.07.81-.85.89-.9.43-.44.66-.69,1.43-1.46-.9.92-.3.34.37-.32-.76.82-1.52,1.51-2.51,2.52C50.87,38,50.8,38.1,50.66,38.23Zm-16,16,.53-.54a6.44,6.44,0,0,1-.71.76C34.36,54.59,34.76,54.19,34.69,54.25Zm.2-.07c.34-.34.33-.31.9-.89.18-.18.18-.2.54-.55,0,0,0,0,.18-.16C36.07,53,35,54.16,34.89,54.18Zm1.8-1.78c.18-.23.85-.85,1.61-1.63-.35.31,1.22-1.2,1.79-1.81.15-.1-.92.95-1.43,1.46C37.93,51.16,37.13,52,36.69,52.4Zm-.37.31.36-.36s-.14.11-.37.33c0,0,1-1,.36-.38a9.63,9.63,0,0,1,.72-.71l.71-.72.19-.16c.27-.27.63-.64.54-.52.32-.32.9-.91.72-.71l-1.62,1.6c-.32.32-.65.59-1.08,1.06.32-.3,1.19-1.18,1.09-1C37,52,37.05,52,36.32,52.71ZM55.5,33.38c-.11.1-.22.2,0,0l3.77-3.76c.65-.66.65-.64,0,0ZM37.37,51.53c.34-.35.2-.26.89-.94-.53.55.48-.43-.35.4.12-.1.91-.9.73-.68-.83.81-1.49,1.47-2.52,2.49.46-.49-.29.28-.19.15Zm.34-.44c-.3.28,0,0,.42-.43l.57-.57.27-.28,1.25-1.24-2,2C38.85,50,38.39,50.4,37.71,51.09Zm12.6-12.43c.38-.37.4-.42.54-.56.45-.45.23-.2.72-.69a7.51,7.51,0,0,1-.71.77c-.13.1.31-.33.17-.23-.46.46-1,1-.53.58l-.18.18-.36.36c-.14.11.49-.51.35-.4-.79.8-.94,1-1.61,1.62,0,0,.4-.44.71-.76ZM69.83,16.05c0,.23.07-.26.16-.92a13.38,13.38,0,0,0,.11-1.84A11.31,11.31,0,0,1,69.83,16.05ZM64.7,24.39,66.14,23c0,.05-.34.36-.65.67l-.41.41-.2.18c-.06.09-.71.73-.89.93.57-.54,1.74-1.75,2-2,0,0,0,0,0,0,.37-.38.53-.57.7-.76l.51-.56a15.37,15.37,0,0,0,1.06-1.45c.49-.84,0,0,.53-.86.15-.32,0,0-.14.21a15.4,15.4,0,0,0,.85-1.86A11.41,11.41,0,0,1,69,19.1s.12-.22.12-.21c.24-.53.31-.77.47-1.21a8,8,0,0,0,.3-.91l.2-.88.11-.68a12.33,12.33,0,0,1-.28,1.53c0-.07.16-.62.23-1a12.44,12.44,0,0,1-.63,2.33,12.77,12.77,0,0,1-1.37,2.67,2.54,2.54,0,0,1-.3.41l-.3.42a4,4,0,0,1-.33.39c-.2.24-.29.33-.51.58-.38.42-.93.92-1.44,1.43l-2.33,2.35-2.16,2.12-.54.55c-1.19,1.2-2.38,2.34-3.41,3.41l-.54.52c.14-.16,1.11-1.11.89-.93l-1.43,1.48L52.15,37l-.73.69c-.45.44-1.09,1.09-1.26,1.23.13-.17,1-1,1.43-1.44l1.62-1.62.36-.36.54-.52.9-.91,1.43-1.44c.06,0-.71.75,0,0,.27-.27-.07.06,0,0,.39-.4,1-1,1.06-1.11l3.42-3.38c.69-.69,1.19-1.21,1.43-1.49L64,25.1v0A8.22,8.22,0,0,0,64.7,24.39Zm-6.46,6.48.36-.34a14.9,14.9,0,0,0-1.08,1.06,3,3,0,0,0,.37-.31C58.27,30.88,57.65,31.48,58.24,30.87Zm1.26-1.24c-.57.56-.47.5-.9.93,0,0-.31.3-.35.35.66-.67.29-.25.9-.87C59,30.2,59.59,29.57,59.5,29.63Zm1.26-1.24c-.09.07-.69.66-1.09,1.05-.14.17.26-.23.19-.14Zm7.51-7.9c.11-.16.16-.25.14-.2a6.1,6.1,0,0,0,.6-1.16C68.7,19.8,68.38,20.28,68.27,20.49Zm-5.17,5.6c-.57.58-1.78,1.75-1.44,1.43Zm.52-.6c-.13.08-1.83,1.83-2,2Zm3.21-9.71A11.48,11.48,0,0,1,66.45,17c0-.09.32-1,.21-.78C66.81,15.82,66.83,15.7,66.83,15.78ZM56.05.2a17,17,0,0,1,2.29.14C58.94.4,56.67.17,56.05.2Zm-.17,32.91c.68-.7.35-.33.9-.89-.24.28-.89.88-1.07,1.09C55.09,33.91,56.21,32.81,55.88,33.11Zm1.27-1.19c.11-.08-.34.36-.35.39l-1.26,1.25C55.8,33.26,56.34,32.75,57.15,31.92Zm3.92-4.12.71-.72a2.38,2.38,0,0,0-.17.21l.36-.36c.22-.23.18-.2,0,0,.22-.24.69-.68.9-.89,0,0-.22.21-.18.15.44-.41,1-.93,1.8-1.78-.06.08-.85.86-.71.75l-.55.53a2,2,0,0,0-.17.19l-1.62,1.62S60.94,28,61.07,27.8ZM24.25,37.65a10.92,10.92,0,0,1,.89-.91S24.69,37.21,24.25,37.65Zm35.58-8.52c.74-.74,1.31-1.27,1.61-1.62l1.08-1.06c.7-.69.92-1,1.44-1.44l-1.44,1.46C61.63,27.37,60,29,59.83,29.13Zm-.36.37c-.12.2-1.54,1.55-2.33,2.37.2-.25.1-.12-.36.33C57.39,31.54,58.54,30.47,59.47,29.5Zm1.45-1.36.72-.73c.29-.25-.78.78-.72.75l-2.69,2.67C57.92,31.11,60.42,28.64,60.92,28.14ZM57.2.77a13.27,13.27,0,0,1,2,.17c.18,0,.84.18,1.21.27l.89.26c.37.16.81.29,1.2.5a8.82,8.82,0,0,1,1.11.56,12.12,12.12,0,0,1,5.21,6c-.06-.17-.19-.41-.31-.68,0,.15.27.59.46,1.14.07.16.4,1.38.5,1.88a10.21,10.21,0,0,0-.57-2.11,11.6,11.6,0,0,1,.74,2.86c-.08-.43.08.7-.1-.5,0,.33.16,1.19.16,1.46,0,0-.06-1,0-.71.06.41.07.82.09,1.22-.1-1.58,0,.27,0,1,0,0,0-.54,0-.73s0,.05,0,.54a14.1,14.1,0,0,1-.14,1.43c0,.15-.09.55-.09.47a12,12,0,0,1-.81,2.55,10.09,10.09,0,0,0,.78-2.86l.09-.47c.08-.73,0,.22,0,0a12.21,12.21,0,0,0,.09-2,6,6,0,0,1,0,1,2.57,2.57,0,0,0,0-.79,9.38,9.38,0,0,0-.08-1.16,11.71,11.71,0,0,0-.22-1.43,5.46,5.46,0,0,0-.21-.72s.2.76.18.71c.06.31.08.36.13.71a11.41,11.41,0,0,1,.16,1.94A12.8,12.8,0,0,0,67.92,7c.18.26.19.23.09,0a12.38,12.38,0,0,0-.82-1.22c-.41-.52.38.52.11.2A11.67,11.67,0,0,0,66.53,5c0,.08.5.57,1,1.34a13.31,13.31,0,0,0-2.49-2.66l.22.14a8.55,8.55,0,0,0-1-.72l.39.28a13.84,13.84,0,0,0-3.93-1.92c.27.07.27.06-.21-.09s-1-.22-.5-.11c0,0-1-.24-1.44-.28C58,.88,57.91.87,57.2.77ZM69.53,11.11s0,.44.11.91l.08,1A13.45,13.45,0,0,0,69.53,11.11ZM68,7c.35.64.44.91.28.64.52,1.14.2.33.36.67.06.17.27.7.43,1.19s.28.94.28.9c-.19-.74-.18-.57-.28-.94A11.12,11.12,0,0,0,68,7ZM64.55,3.24c.76.59,1,.74,1.32,1.08s1.06,1.15.86.88c0,0-.72-.8-.83-.88A17.05,17.05,0,0,0,64.55,3.24Zm.43.28a3.55,3.55,0,0,0-.77-.58C64,2.82,64.48,3.12,65,3.52Zm-1.47-.93c.53.3.65.4.84.51a6.48,6.48,0,0,0-.81-.52Zm-.67-.33c.18.08.64.25-.18-.13C62.33,2,62.13,1.93,62.84,2.26ZM59.6,1.15c-.25-.06-.2,0,.23.06A3,3,0,0,0,58.9,1C58.67,1,59.69,1.13,59.6,1.15Zm-5.1,29c.45-.43,1.4-1.4,1.44-1.41l-1.79,1.79C54.19,30.48,54.5,30.17,54.5,30.15Zm.55-.5c.61-.59-.81.86-1.08,1.09C54.16,30.53,54.86,29.87,55.05,29.65Zm-5.92,5.94c.07-.1,1.53-1.61,2.15-2.17l1.07-1.1s-.07.08-.18.19.07-.06.18-.17c-.26.29-.86.87-1.38,1.39s-1,1-.95,1Zm7.35-7.39,1.79-1.81s-1.12,1.14-1.43,1.47-1.07,1-.55.49c0,0-.69.73-.71.72s.8-.83,1.25-1.27C57,27.67,56.55,28.1,56.48,28.2ZM51.62,33l2.88-2.86c-.14.18-.85.91-1.79,1.84-.29.26.78-.77.71-.74C52.86,31.76,51.93,32.74,51.62,33ZM42.38,46.43s.3-.33,0,0a6.09,6.09,0,0,1,.72-.69ZM59.53,25.11l-1.8,1.8c.05-.08.85-.86.71-.75C58.87,25.74,59.58,25,59.53,25.11Zm6.64-7.32a9.26,9.26,0,0,1-.76,1.32,11.22,11.22,0,0,1-1.2,1.43,6.57,6.57,0,0,1,.53-.58,12.4,12.4,0,0,0,.8-1.07C65.78,18.48,66,18.08,66.17,17.79ZM49.65,35c-1.14,1.14-.11.18-1.25,1.31.1-.13.56-.6.53-.6.74-.74,1.57-1.59,1.8-1.78A14.4,14.4,0,0,1,49.65,35ZM63.32,21.45,61,23.79C61.8,23,62.61,22.15,63.32,21.45Zm-2,1.9-1.08,1.07.71-.74A2,2,0,0,1,61.33,23.35Zm4.42-5a3.18,3.18,0,0,0,.49-.9,7.22,7.22,0,0,1-.65,1.24,11.44,11.44,0,0,1-1,1.37l-.53.53c-.54.55.17-.15,0,0l-.72.71c-.18.15.53-.57,0,0l1.06-1.1c.34-.39.24-.25.67-.8a3.17,3.17,0,0,1-.49.61c-.05.07.16-.17.18-.17a11,11,0,0,0,1.38-2.2c-.25.62.18-.32.41-.94,0,0-.1.31-.07.26A9,9,0,0,1,65.75,18.4ZM59.2,25.6c-.43.41-1.12,1.12-1.8,1.8l-.72.71-.72.72-5,5c0-.09,1.19-1.21,1.61-1.63s.82-.85,1.25-1.27c.23-.23.18-.19,0,0,.18-.2.8-.79.72-.7l3.77-3.78C58.63,26.14,59.12,25.66,59.2,25.6ZM44,44.8c-.47.45,1.06-1.1,1.44-1.45C45.35,43.45,44.07,44.69,44,44.8Zm2.21-1.95-1.08,1.06c-.12.07,1.21-1.2,1.07-1.07l1.44-1.44L49.07,40s.31-.29.72-.71c-.56.59-1.3,1.29-2.16,2.15Zm-1.65,1.46c.14-.11-.62.63-.35.4a7.17,7.17,0,0,1-.55.52C44,44.91,43.87,45,44.55,44.31Zm-.9.92c-.51.51.23-.16-.53.58-.23.21.52-.56,0,0C43.16,45.7,43.6,45.27,43.65,45.23Zm.75-.58c.55-.55.71-.67,1.08-1.07C46.06,43,44,45.09,44.4,44.65Zm-3.86-.32-1.26,1.26s1.08-1.07.89-.94C40.77,44,40.45,44.4,40.54,44.33Zm-5.75,9.42c1-1,2.24-2.23,3.24-3.23l1.79-1.81s-.69.7-1.08,1.09l-.89.92-.36.35c-.2.2-.7.72-.9.89C35.67,52.89,35.72,52.84,34.79,53.75ZM47.08,41.91l-.89.91A11.83,11.83,0,0,1,47.08,41.91ZM48.85,40l1.09-1.05c-.54.62-2.19,2.22-3.41,3.45-.21.21-.15.16-.17.2-.51.47-1,1-1.62,1.62s-.48.45-.9.88l2-2c.32-.33.31-.35.89-.94.06,0-.17.19-.17.21C47.58,41.3,48.86,40.07,48.85,40Zm-3.27,3c.17-.21.85-.89,1.61-1.64.2-.22,1.53-1.56,1.44-1.43ZM20.24,62.48l3.23-3.24C22.51,60.21,21.25,61.48,20.24,62.48ZM59.14,3.94a8.79,8.79,0,0,1,1.42.43C60.41,4.33,59.68,4.06,59.14,3.94Zm1.68.51a9.39,9.39,0,0,0-2.14-.63,7,7,0,0,1,1.12.24A5.6,5.6,0,0,1,60.82,4.45Zm-.3,0c-.18,0-.62-.24-1.18-.37l.5.12C60.1,4.24,60.38,4.35,60.52,4.41ZM47.37,9.32c-.07.1-.88.89-1.26,1.27C46.27,10.39,46.84,9.86,47.37,9.32ZM60.91,4.64a9.38,9.38,0,0,1,3.14,2.28c-.27-.26.72.82.45.56s-.52-.59-.76-.87L63,5.92s0,0,0,0a10.25,10.25,0,0,0-1-.69c-.32-.19.05,0-.24-.11a8.6,8.6,0,0,0-2-.88c-.27-.07-.14,0,0,0-.25,0-.62-.2-.94-.24-.08-.07,1.44.34.74.14.47.09,1.16.42.67.25C60.44,4.44,61.05,4.71,60.91,4.64Zm3.94,3a12,12,0,0,0-1.91-2c.23.15.54.46.91.78A13.87,13.87,0,0,1,64.85,7.66ZM44.52,12.31a6.41,6.41,0,0,0-.54.5l-.36.39c-.42.41-.67.67-1.26,1.24.43-.45.08-.1.53-.58.71-.69,0,.05,0,0,.63-.63.6-.65,1.61-1.64a8.87,8.87,0,0,0,1.08-1s-.65.7-1.42,1.47A3.08,3.08,0,0,1,44.52,12.31ZM64.26,7.09a9.37,9.37,0,0,1,1.25,1.82s-.23-.38-.46-.78S64.48,7.31,64.26,7.09ZM62.34,5.5s-.73-.46-1.05-.61A5.56,5.56,0,0,1,62.34,5.5ZM41.11,15.73c-.31.32-.46.5-1.07,1.1a4.27,4.27,0,0,1,.37-.38Zm-5,5,.54-.53c-.31.32-.46.5-1.07,1.1ZM65.39,8.49a9.49,9.49,0,0,1,1.24,3.61,9.13,9.13,0,0,1-.27,3.8c-.13.37,0,.16,0-.22a9.91,9.91,0,0,0,.22-1.24,9.27,9.27,0,0,0-.18-3.26,10.07,10.07,0,0,0-1.33-3.12C65.09,8,65.25,8.22,65.39,8.49ZM28.72,28.13c-.77.77-.69.67-.54.49A3.08,3.08,0,0,1,28.72,28.13ZM20.66,36.3a5.14,5.14,0,0,1-.72.69A6,6,0,0,1,20.66,36.3Zm7-7-3.6,3.59L23,34l.18-.2-2,2c.22-.27-.46.41-.91.85.43-.47,1.64-1.63,2-2,.11-.14.92-1,1.43-1.48.08-.06-.67.67-.71.74.18-.15.6-.61.71-.73l1.08-1.07s0,0,0,0l.72-.73.36-.35c.24-.24.46-.48.9-.9l.36-.35C27.34,29.58,26.74,30.22,27.67,29.29Zm-.73.7c-.8.81-1.43,1.38-1.43,1.45C26.05,30.9,26.91,30.05,26.94,30ZM41.8,14.89c.09-.12.87-.88,1.26-1.26C43,13.72,42.18,14.51,41.8,14.89Zm-.35.4,2.16-2.16ZM17,39.65c-.33.36-.72.73-1.43,1.44C15.1,41.55,16.64,40,17,39.65Zm6.11-6.1-2.52,2.52c-.81.81-3.71,3.71-2.15,2.14Zm20.62,1.29c.49-.45-1.39,1.38-2,2,.37-.4,1-1.08,1.44-1.45Zm2.69-2.67-2.15,2.14C44.75,33.83,46.35,32.22,46.44,32.17ZM47.71,31c.45-.45.06,0,0,0-.41.41-.57.57-.9.88C47,31.73,47.67,31.07,47.71,31ZM65.64,17.74a10.45,10.45,0,0,1-1,1.57,14.65,14.65,0,0,1-1.27,1.37,16.76,16.76,0,0,0,1.35-1.5A12.34,12.34,0,0,0,65.64,17.74Zm-45.53,19c-.06.15-1.55,1.64-2.68,2.74-.26.25,0,0,.18-.17-.51.54-1.18,1.16-1.62,1.6-.22.22-.08.09,0,0-.41.43-1.59,1.61-2,2s-1,1-.89.93c-.71.68-1.52,1.5-2.51,2.5-.44.42-.42.37-1.09,1-.43.46,1-1,.37-.3a5.32,5.32,0,0,1-.54.52l-2,2A8.16,8.16,0,0,0,6,51.52c-.24.46-.33.68-.32.63A9.33,9.33,0,0,0,5.13,55a8.26,8.26,0,0,0,.29,1.92,2.53,2.53,0,0,1-.17-.71,7.87,7.87,0,0,0,.65,2c.14.24.07.12,0,0,.15.22.19.34.36.63a9.24,9.24,0,0,0,.71,1,7.57,7.57,0,0,0,.89.81c.23.18.55.45.56.44.25.13.54.3.87.45l.66.28a3.27,3.27,0,0,0,.47.15,7.18,7.18,0,0,0,2.14.35c.08,0-.35,0-.6,0a7,7,0,0,0,3.19-.41,7.77,7.77,0,0,0,1.08-.54,8.92,8.92,0,0,0,.79-.55c.26-.21,0,0,.19-.17.34-.27.92-.85,1.26-1.2a8.54,8.54,0,0,1-.71.73c.72-.69-.24.27.19-.12l.35-.37c.54-.54-.17.15,0,0s.39-.39.71-.72l.54-.56a9.46,9.46,0,0,0,.72-.72c.39-.4.26-.24.54-.52a2.51,2.51,0,0,0,.36-.38c.78-.76,1.35-1.32,2.15-2.15.47-.46.87-.84,1.44-1.41a2.6,2.6,0,0,0-.36.34l1.26-1.26c.33-.33.1-.14.35-.39.57-.56.77-.8,1.07-1.1l.9-.9,5.75-5.74c.39-.39,1-1,1.26-1.25.4-.39.25-.27.53-.55l5-5-2.15,2.16a13.09,13.09,0,0,0,1.08-1.06c.21-.2.52-.5.54-.53l.9-.91c1-.94,2.15-2.12,2.69-2.7l4-3.93,2-2.07a5.66,5.66,0,0,0,1.46-2.54,6.83,6.83,0,0,0,.13-1.58,5.12,5.12,0,0,0-.68-2.3,5.41,5.41,0,0,0-2.64-2.29,5.3,5.3,0,0,0-4.13.08,5.5,5.5,0,0,0-1.57,1.06c-.46.44-.9.89-1.24,1.25s-.86.85-1.44,1.43l-.54.53-3.41,3.43-1.8,1.78-1.07,1.09-1.26,1.25-1.79,1.8a1,1,0,0,0-.18.2L28,34.89c-.56.53-.88.82-2,1.93-.37.33.72-.78.52-.62s-.94.93-1.26,1.25.05,0-.17.22c-.68.67-.4.35-.91.86l-1.07,1.09s-.23.2-.19.15L21.7,41c-.05,0,.17-.18.18-.2-.66.66-1.23,1.24-1.62,1.6-.21.22-.08.1,0,0-.52.53-1.7,1.72-2.15,2.15a7.45,7.45,0,0,1-.56.55,1.94,1.94,0,0,1-1.66.52,2,2,0,0,1-.78-.37,2,2,0,0,1-.58-.68s.25.44.1.26c-.38-.69-.16-.33-.13-.26a1.82,1.82,0,0,1-.19-.79,1.63,1.63,0,0,1,.13-.7,2.82,2.82,0,0,1,.6-.85,6.68,6.68,0,0,0,.59-.61l-.29.28-.25.26c-.31.33-.21.19-.38.38a5.82,5.82,0,0,1,.66-.72l.78-.79c-.07.09-1,1-.89.92.68-.65,2-2,2.33-2.36.59-.58,1.71-1.72,1.62-1.58L20.29,37l-.36.37c.08,0,1.16-1.12.55-.47.24-.23,1-1,1.26-1.26l-.9.88c.28-.3-.3.24.52-.59s-.19.21,0,0c.61-.61.77-.81,1.08-1.08.53-.54-.18.15,0,0L24.24,33c.35-.34-.31.35.37-.32.3-.3.46-.47.53-.55a2.71,2.71,0,0,0-.28.27l-.26.25c-.19.16.55-.57.89-.92-.17.14-.72.72-1.26,1.25.29-.34,1.22-1.23,2.15-2.17l-.35.39c1.17-1.19,1.16-1.13,1.63-1.58l.36-.36c-.28.24-.79.73-.92.82a8,8,0,0,1,.73-.68c.56-.56.73-.74.89-.92a2.16,2.16,0,0,1,.37-.32c.57-.58.21-.24,1.08-1.09l.46-.46c.15-.14.26-.25.26-.24.66-.66-.08.05.35-.4l-.54.54a13.49,13.49,0,0,1,1.08-1.05l1.8-1.78c-.43.41-1.92,1.89-1.45,1.38l.91-.87.36-.37s-.23.2-.19.15l-.72.72c-.33.3,1.1-1.12,1.44-1.43,0,0-.22.24-.17.21.69-.7,1.89-1.91,2.16-2.13.34-.37-.16.12-.37.31,1-1,1.87-1.81,3.06-3,.56-.56.21-.19.91-.88l.79-.71a8.74,8.74,0,0,1,2.52-1.37,4.73,4.73,0,0,1,.76-.26,6.6,6.6,0,0,1,.79-.19c-.29,0-.23,0,.27-.05.06,0-.76.14.23,0,.68,0-.35,0,0,0a8.92,8.92,0,0,1,2.38.09,11.22,11.22,0,0,1,2.73.87,6.5,6.5,0,0,1,.72.35c.71.42.1.07.21.14a5.29,5.29,0,0,1,.64.45c.84.65.29.18.66.48a9.1,9.1,0,0,1,1.81,2.28c.24.51,0,0-.18-.23a10.34,10.34,0,0,1,1,2.43c-.1-.22,0,.15-.28-.77,0,.07.2.62.29,1,.12.56.06.12.1.27a9.13,9.13,0,0,1,.24,1.57c0,.31,0,.23,0,.28A8.54,8.54,0,0,1,54.13,29a1.55,1.55,0,0,0-.13.24,10.42,10.42,0,0,1-1.63,2s0,0,0,0l-.89.9-.36.38c-.22.24.58-.58.37-.33-.8.83-.46.39-1.44,1.42-.06,0,.16-.19.17-.21-.56.55-1,1-1.26,1.26s-.14.17-.17.2l-2.69,2.7s.53-.53.53-.55c-.23.2-2,2-.71.74-.07.1-.88.89-1.26,1.27.08-.1-.12.1-.18.14-.21.21-.1.11,0,0-.42.46-1.75,1.71-2,2L41.42,42.2a5.67,5.67,0,0,0,.54-.52c-.17.19-1,1-1.26,1.25a6.65,6.65,0,0,1-.53.56c-.39.39-.35.33-.37.33-.58.59-1.14,1.17-1.79,1.82l-.36.35-.36.37-2,2c-.33.34-.92.92-1.26,1.26s-.87.9-1.26,1.26l-.72.71-.17.19c-.07.07-1.27,1.22-1.44,1.44l-2.15,2.16-.72.73-.54.52c-.58.57-.49.52-.9.9l-.54.56L21.72,62a15.6,15.6,0,0,1-4.11,3.3c-.22.11-.36.15-.47.2A10.93,10.93,0,0,1,9.61,66c-.66-.18-.22,0-1-.29a3.3,3.3,0,0,0-.71-.31c-.2-.06.66.27.46.21a9,9,0,0,1-1.2-.52,3.08,3.08,0,0,0-.5-.24,9.47,9.47,0,0,1-1.79-1.25A9.51,9.51,0,0,1,3.26,61.9c.47.58.47.53.59.62-.37-.42-.32-.39-.36-.41a4.65,4.65,0,0,1-.56-.86,12.13,12.13,0,0,1-1.31-2.88c-.17-.55-.08-.35-.19-.75a3.4,3.4,0,0,1-.13-.51,12.49,12.49,0,0,1-.24-1.82c0-.15,0-.39,0-1.3,0-.31,0,.23,0,.64s0,.69,0-.13c0-.43.05-1,.07-1a10.16,10.16,0,0,1,.15-1.06,8.55,8.55,0,0,1,.28-1A10.62,10.62,0,0,1,3,48.5a13.81,13.81,0,0,1,1.66-1.94c.21-.21.15-.17.18-.21C5.68,45.5,7.19,44,8,43.1l.9-.89.53-.55.36-.35.9-.9,1.07-1.09-.72.71c-.44.42,1.19-1.18,1.62-1.62-.41.44.53-.5-.17.22.17-.14.33-.35.89-.9.25-.27-.47.43,0,0,.71-.71-.06.07.36-.33a2.88,2.88,0,0,0,.35-.38c.15-.15,1-.95.72-.74,1-1,1.69-1.69,2.52-2.5-.09.11.39-.36,0,0,.73-.74,2.45-2.45,3.23-3.23a1.13,1.13,0,0,0,.17-.2c1.49-1.5,3.16-3.12,3.95-3.95L26,25.14c.39-.39.69-.7.7-.73L28.14,23l1.08-1.07.53-.55L32.09,19l2.69-2.7,1.61-1.64,2-2c-.12.15.19-.16.19-.13-.67.66-.38.42-.89.93.17-.15.56-.58,1.08-1.08-.44.47-.57.66.2-.09l.54-.55,2-2c.65-.65,1-1,1.62-1.62.39-.43,2.24-2.27,3.4-3.44l.89-.92a13.77,13.77,0,0,1,3.55-2.65c-.13.1.59-.27.7-.28a10.78,10.78,0,0,1,2.7-.8c-.52.14,0,0,.76-.08-1,.16.64,0,.73,0A7.55,7.55,0,0,0,55,.09c.08,0,.64-.06,1-.06-.63.05-.13,0-.79.08-.11,0,.19,0,.5,0a4.51,4.51,0,0,0-.53.07l-.51.06c-.26.05.12,0-.27.08L54,.4a8.23,8.23,0,0,0-1,.31,13.27,13.27,0,0,0-1.64.69c-.27.14-.19.12-.23.15a12.66,12.66,0,0,0-2,1.27,21.09,21.09,0,0,0-1.62,1.42L46,5.67c-.05.12.58-.49.74-.6-1.19,1.19.13-.07-.34.43l-.72.72s.32-.29.19-.13l-2,2c-.11.09-.35.32-.73.69-.62.62,0,0-.35.38l-.72.72v0c-.7.71-1.25,1.22-1.43,1.44l.52-.52c.24-.24.46-.46.38-.35L36,15.94l-.53.55s.31-.28.19-.13c-.86.88-.77.81-1.79,1.82-.18.2.4-.39.72-.71.57-.56-.32.33-.54.55-1.24,1.23-3.35,3.37-3.77,3.74s-.58.62-1.44,1.46c0,0,.54-.53.54-.55s-.18.17-.18.16c-.43.43-.84.85-.89.93L25.08,27c.92-.94-.76.74-.89.9L20.77,31.3l-7.89,7.91c-.32.31,0,0,0,0l-.36.35-.89.92c-.31.29-.78.76-1.09,1.06l-.89.91a3.56,3.56,0,0,1-.54.52c-.39.39-.43.46-1.25,1.28,0-.06.35-.37.35-.38L6.94,45.09l-.36.34c-.65.65-1.35,1.34-2,2a11.08,11.08,0,0,0-1.39,1.77,2.78,2.78,0,0,0-.25.45,8.67,8.67,0,0,0-.8,1.69,9.6,9.6,0,0,0-.46,2.06h0a8.43,8.43,0,0,0-.05,1.51c0,.76,0-.3,0-.27a8.8,8.8,0,0,0,.16,1.76,11.53,11.53,0,0,0,1,3.35,8.16,8.16,0,0,0,.44.89A9.92,9.92,0,0,0,7.3,64.42a12.56,12.56,0,0,0,5.86,1.36,9.35,9.35,0,0,0,1.74-.25,9.4,9.4,0,0,0,2.77-1v0a14.83,14.83,0,0,0,2.59-2,11.48,11.48,0,0,1-1.33,1.14,8.33,8.33,0,0,1-1.26.85,6.46,6.46,0,0,0,.85-.51,7.47,7.47,0,0,0-.63.47,10.11,10.11,0,0,1-3.3,1.26,5.14,5.14,0,0,1-1,.1c-.38,0-.64,0-1,0a5.71,5.71,0,0,0,1,0,10.69,10.69,0,0,1-3-.19c.3,0,.14,0-.21-.08a11.47,11.47,0,0,1-1.47-.4s-.07,0-.25-.07c0,0,.51.18,1,.31a3.19,3.19,0,0,1,.71.2,12.26,12.26,0,0,1-2.86-1c-.84-.43,0,0-.48-.21a13.78,13.78,0,0,0,1.85.82,2.59,2.59,0,0,1-.5-.16,4.92,4.92,0,0,0,.7.27c.89.27-.41-.15-.21-.1.51.16.47.14.5.14.75.2.89.25,1.47.36a8.86,8.86,0,0,1-1-.22,8.75,8.75,0,0,0,1.75.32A12.66,12.66,0,0,0,13.3,66c.51,0,.09,0,1-.13l.73-.1c.34-.08.33-.11.75-.23a11.14,11.14,0,0,0,3.55-1.93c1.14-.93,2.19-2.1,3.29-3.16.41-.41.19-.22.53-.56-.12.1-.39.37-.72.7.48-.52-.22.15-.38.28l.36-.36.36-.36c-.25.29-.14.2.55-.48.13-.16-.62.6-.37.31.71-.68,1.21-1.19,1.8-1.8-.32.3-.69.69-1.08,1.08l-1.62,1.58c.25-.26.63-.69,0-.05l1.61-1.66c.49-.49.37-.34.73-.7L25.82,57l.54-.53L28,54.81c1.09-1.1,3.32-3.31,4.49-4.48.33-.33.9-.87,1.07-1.09.49-.49.37-.34.73-.7a3.26,3.26,0,0,0,.35-.37c.58-.59.25-.22.73-.7.66-.65,1-1,1.43-1.43.21-.21.15-.17.18-.21l2.33-2.31.36-.39L49.88,32.9l1.43-1.45a18.45,18.45,0,0,0,1.62-1.75A8,8,0,0,0,54,27.89a4.12,4.12,0,0,1-.33.65,10,10,0,0,0,.49-1.13A7.53,7.53,0,0,0,54.63,25a9.79,9.79,0,0,0-1-4.53,6.32,6.32,0,0,0-.34-.65,7.23,7.23,0,0,0-1.06-1.36,7,7,0,0,0-.91-.82,9,9,0,0,0-1.94-1.09c-.23-.11-.73-.29-.68-.27a9.7,9.7,0,0,0-1.21-.31c-.13,0-.44-.09-.73-.14a9.25,9.25,0,0,0-2,0,7.89,7.89,0,0,0-1.93.47,8.29,8.29,0,0,0-1.92,1c-.22.16-.2.15-.59.47,0,0,.18-.16.19-.18-.34.28-.4.34-.74.66,0,0,0,0,.18-.15-.07.08-.57.54-.36.32l-1.08,1.09-1.26,1.27c-.34.33-.68.68-1.08,1.06l-3.41,3.42L31.4,26.72l-.54.53-1.44,1.44-.9.88-1.08,1.07-.54.55-.54.53-.71.73-1.08,1.07c-.52.52-1.9,1.93-2.87,2.88l-2.51,2.53-.9.89-2.86,2.89a1.5,1.5,0,0,0-.45,1.5,1.42,1.42,0,0,0,1.13.88,1.31,1.31,0,0,0,1.14-.43,2.25,2.25,0,0,1-.54.35,2.41,2.41,0,0,0,.49-.32l.67-.67c.45-.45.85-.84.81-.78.12-.15.44-.45,1.08-1.1.3-.31.74-.77,1.61-1.63a5,5,0,0,1-.54.56c.12-.11.43-.39-.17.2.12-.09.38-.39.72-.72-.14.15-.19.22-.17.22l.89-.91c-.19.24.56-.51.91-.87-.24.2-1,1-1.1,1,.27-.28.76-.77.9-.93l.54-.5c.52-.52.43-.47-.18.15a14.54,14.54,0,0,1,1.26-1.22,11,11,0,0,0,.89-1c.25-.26.51-.51.53-.55.38-.35,1.19-1.17,1.27-1.21-.47.47-.9.9-.72.69l-.9.9c-.14.18.87-.86.73-.68l-.9.89c.06,0,.8-.77.91-.85.55-.55.8-.83,1.25-1.26,0,.05-1.28,1.35-1.06,1.16l-1.61,1.62c.29-.31,0,0,0,0-.85.84-.33.4-1.25,1.3-.46.46-.22.22-.18.17-.4.39-.25.27-.53.55l-1.44,1.42c-.6.61.37-.35.18-.14s-.85.85-.9.88c-.42.43.21-.17.37-.33l-1.8,1.81c.35-.31.63-.64,1.08-1.09.08,0,.8-.77.37-.31L22.14,40c.63-.63.15-.13.9-.89l.9-.92L25.2,37c.61-.62-.5.5-.19.16.68-.71,2.25-2.23,2.51-2.53s.61-.58,1.27-1.24c-.3.35-1,1-1.44,1.44.72-.68,1.46-1.38,2.17-2.07s-.48.43-.9.85c.06-.1,1.39-1.39,1.06-1.13l.54-.52c.31-.33,1.19-1.2,2-2-.05.07-.8.8-.72.75l1.27-1.24c.45-.45.35-.38.34-.4.44-.43,1.31-1.32,1.44-1.43s-.79.77-1.07,1.09c.52-.47,1-1,1.62-1.6,0,0-.23.2-.19.14l1.62-1.61c.56-.54-1.29,1.28-1.08,1.1.44-.41,1.3-1.31,2-2-1,.94,1-1,1.61-1.63s-.91.92-1.25,1.26c.27-.23,1.39-1.38,1.79-1.79s1.8-1.77,2.35-2.32c-.27.22-1.26,1.24-1.81,1.78,0,0,.64-.64.9-.91s.66-.68,1-1a8.16,8.16,0,0,1,.72-.57,6.11,6.11,0,0,1,1.87-.8,5.67,5.67,0,0,1,2.32-.08,3.12,3.12,0,0,1,.52.1c.65.19.79.3.7.27A5.51,5.51,0,0,1,50,20.38a6.25,6.25,0,0,1,1.2,1.73c.18.47-.06-.11-.15-.24a7,7,0,0,1,.3.7c.1.31.12.33,0,0a5.55,5.55,0,0,1,.27,2.8s0,.06,0-.24a5.72,5.72,0,0,1-.72,2.2c.26-.5,0-.12-.29.39a8,8,0,0,0,.5-.89c0-.06-.08.17-.37.65-.64.93.1-.07-.27.48a27.72,27.72,0,0,1-1.94,2v0l-2.15,2.18c.25-.28-.3.27-.37.33s.11-.15-.36.33.65-.63.37-.31l-1.27,1.24c-.25.25,0,0,.19-.17-.38.41-.78.77-1.26,1.25l-1.43,1.45-1.26,1.26s.17-.18.17-.2c-.54.54-.69.72-1.07,1.08-.06,0,.51-.53.53-.56l-1.07,1.09c.11-.09.75-.73.73-.67l-.72.72c-.06.05.27-.28.18-.2-.43.41-.85.81-1.81,1.76-.49.49.55-.53,0,0L36.56,42v0l-.72.72c-.63.63-.67.64-1.07,1.08.37-.36,1.18-1.14.18-.14l2-2c.08,0-.8.83-1.25,1.28l-1.62,1.61v0c-.75.75-1,1-.71.76l-1.08,1.07.36-.38-2,2c0-.05.18-.19.18-.2l-3.42,3.4c-.14.17-.68.73-1.61,1.65.06,0,1-1,1.44-1.42l-2,2c-.07.05.13-.16.35-.38-.63.63,0-.06-.37.32-.83.83.26-.23-.35.38-.81.82-.41.37-1.26,1.23-.35.35.28-.24-.17.23s-1.53,1.54-1.08,1l-2.52,2.52c-.25.3.76-.73,1.27-1.23-.15.18-.78.79-1.26,1.27l-1.07,1.09c-.19.15.24-.28.71-.74,0,0-.46.43-.9.88.09-.12.23-.27-.19.14-.24.24.22-.18-.36.39-.18.22.79-.74.2-.13-.48.45-.23.21-.19.16a8.62,8.62,0,0,1-1.16,1,8.31,8.31,0,0,1-1.37.76s.29-.13.57-.29.29-.15.39-.22l.17-.12a8.94,8.94,0,0,1-1.36.68c-.53.19,0,0,0,0-.22.12-.87.27-.74.27a6.94,6.94,0,0,1-2.29.22,8.46,8.46,0,0,1-4.54-1.63,5.44,5.44,0,0,1-.84-.74,3.59,3.59,0,0,1-.61-.71c-.17-.22-.13-.13-.33-.41a8.14,8.14,0,0,1-1.3-4,7.77,7.77,0,0,1,.68-3.67l.22-.48a7.78,7.78,0,0,1,.68-1.08c.16-.2-.29.47-.41.68a6.32,6.32,0,0,0-.48.88,7.35,7.35,0,0,0-.43,1.22c0-.06.1-.28.19-.56a4.34,4.34,0,0,1,.36-.86c.06-.13.08-.12.12-.21A8.64,8.64,0,0,1,6.4,50c.18-.29-.48.66-.31.38s1.26-1.51.46-.65A19,19,0,0,1,8,48.27c.89-.92,2.26-2.27,3.77-3.78l5-5c.48-.49.36-.34.72-.7l.9-.9c.29-.29.26-.3.89-.91.35-.31-.3.32-.53.56l-.36.39c-.23.23-1,1-.89.9s.25-.26.54-.54a7.53,7.53,0,0,0,.72-.69c.07-.09-.82.82-.54.52.85-.86,1.93-1.92,2.69-2.68l-.19.18-.44.43-.81.8c-.25.22.39-.41.35-.41l4.67-4.65c1.05-1.08,2.27-2.3,3.41-3.42.13-.17-.21.16-.73.67l.9-.92s-.51.51-.72.72l-2,2-.36.37-1.26,1.24c-.4.41.22-.21-.17.2L19.8,36.34c.48-.51-1,1-1.09,1-.48.47.18-.12-.53.57l.54-.53c.57-.56-.32.33-.54.55l-1.26,1.23a7.54,7.54,0,0,0,.72-.7s-.53.53-.9.9l-2.87,2.88c-.09.07.26-.27.54-.55-.34.29-1,1-1.26,1.27l-2.88,2.84c-.13.17.86-.84,1.26-1.24C10.17,46,8.37,47.75,7.23,48.9a3.32,3.32,0,0,0-.36.39c-.25.29,0,0,0,0a8.92,8.92,0,0,0-1,1.23,5.87,5.87,0,0,0-.55,1,4,4,0,0,0-.38.89c-.09.28-.06.21-.06.26a8.24,8.24,0,0,0,.55,6c.17.28.07.1,0,0,.13.2.29.47.47.77a9.37,9.37,0,0,0,.72.89,10.49,10.49,0,0,0,1.38,1.21,8.34,8.34,0,0,0,1.41.7,8.66,8.66,0,0,0,3.43.68,7.54,7.54,0,0,0,3.55-1c.31-.14.92-.57.86-.5a18.9,18.9,0,0,0,2-1.86l1.88-1.86.35-.38.9-.89c.43-.43-.21.17-.37.33-.82.81-1,1-1.61,1.62l1.61-1.64-.36.35a3,3,0,0,1,.36-.36c.13-.13.47-.46.36-.33l.72-.72.54-.52c.33-.32.34-.37.9-.91.06,0,1-1,1.09-1,.54-.55-.27.23.17-.22s.87-.86.54-.51c.44-.47,1.34-1.31,1.25-1.28s-.83.87-.89.9.77-.79,1.07-1.1l.54-.55c.94-.95,2.41-2.42,2.87-2.86l2-2c.39-.39.81-.83,1.07-1.1l-2.15,2.15c.31-.35,1.06-1.09,1.61-1.63s1.29-1.29,2.16-2.15c.16-.13-.47.48-.54.57L36.78,42c.39-.36.77-.76,1.62-1.59.05-.08-1,1-.73.69.54-.55,1.4-1.39,1.43-1.45.45-.43,1.08-1.05,1.27-1.22s.69-.7.53-.57c.47-.48.78-.75.72-.72.66-.66.69-.66,1.08-1s-.48.46-.18.14l3.41-3.4c.18-.19.18-.21.53-.56-.46.51.42-.4.55-.5s1.46-1.48,1.07-1.11a6.72,6.72,0,0,1,.54-.53c.5-.52-.27.23.17-.22l1.27-1.27a6.56,6.56,0,0,0,1-1.4,6,6,0,0,0,.69-3.09,4.68,4.68,0,0,0-.1-.77,5.53,5.53,0,0,0-.76-1.94,7.53,7.53,0,0,0-.61-.84,6,6,0,0,0-2.59-1.7,5.89,5.89,0,0,0-3.73.05,6.87,6.87,0,0,0-2.3,1.38c.06-.09,0-.05-.56.48a7.34,7.34,0,0,1,.74-.74c-.42.38.42-.48-.58.47a11.56,11.56,0,0,1,1-.94c.16-.15.93-.57.68-.45a6.07,6.07,0,0,1,7.79,1.63,6.37,6.37,0,0,1,.69,1.15A5.86,5.86,0,0,1,52,24a4.84,4.84,0,0,1,0,1.07,5.54,5.54,0,0,1-.59,2.07,4.89,4.89,0,0,1-.26.48,7.8,7.8,0,0,1-1.35,1.62l-.55.53-.53.55-1.26,1.25-.71.73L44.9,34.1c-.31.3-.34.34-.36.38L40.41,38.6c-.35.34.31-.35-.36.32s.26-.23-.18.22l-3.23,3.23c.08-.09.23-.25.54-.55a11.11,11.11,0,0,0-.9.92c-.83.84.25-.27-.36.33-.38.38-.34.36-.35.39l-1.26,1.25c-.31.28,0,0,0,0l-.54.54c-.37.38.67-.63-.35.39-.73.73,0,0-.19.14l-.72.72c-.39.4-.07.11-.17.23L31.08,48c.14-.15.19-.22.17-.22-.22.24-.95.95-.71.75-1,1-1.52,1.51-1.81,1.76s-.81.87-.89.9c-.5.5.42-.38-.54.56l.37-.34c-.1.1-1.63,1.66-1.27,1.24l-1.07,1.1v0l-.72.74c-.52.52-.67.65-.9.86,0,.07-1.34,1.36-1.61,1.64l.54-.53-3.42,3.41L17.92,61a9.14,9.14,0,0,1-1,.82c.65-.4-.71.5.22-.1-.25.25-1.66.93-1.16.72a7.72,7.72,0,0,1-5.08.52,8.55,8.55,0,0,1-4.31-2.38,8.77,8.77,0,0,0,2.16,1.59,9.15,9.15,0,0,0,2.52.84,8.1,8.1,0,0,1-1.51-.44,6.69,6.69,0,0,1-1.47-.67h0a7.35,7.35,0,0,1-2-1.72l-.34-.42A7.5,7.5,0,0,1,5,58.12a2.44,2.44,0,0,1-.17-.48c-.3-1,0,.08-.18-.52s-.28-1.64-.28-1.32A8.55,8.55,0,0,1,4.56,53,9.44,9.44,0,0,1,5,51.71c.2-.39.36-.75.53-1a10.39,10.39,0,0,0-.79,1.8,9.29,9.29,0,0,0-.27,1.16c-.06.39-.08.77-.1,1.1s0,.78.06.82l0-.82c0-.19,0-.28,0-.25l.07-.72.14-.7a3.42,3.42,0,0,1,.21-.77,5.19,5.19,0,0,1,.36-.89c-.14.3,0,.11,0,0A8.66,8.66,0,0,1,6,50a15.78,15.78,0,0,1,1.15-1.29L9.87,46c.44-.43-.32.35.19-.15.77-.77-.27.22.89-.93.38-.35-.25.3-.71.77.13-.1,1.19-1.17.89-.92l.36-.37,12-12c.2-.21.1-.11,0,0l2-2c.12-.09-.64.66-.17.21l.9-.89c.47-.46-.65.65-.9.92l2-1.94c.17-.23.82-.9,1.42-1.51.44-.44.92-.92.9-.87.82-.85,1.87-1.86,3.59-3.59.14-.14.2-.18.19-.15.38-.38.34-.35.35-.38l2.88-2.87c1.58-1.58,3.17-3.15,4.49-4.46.65-.65,1.29-1.3,1.62-1.61l.54-.55.9-.88c1.52-1.51,3.29-3.29,5.57-5.57.45-.41-.27.29-.17.23a9.74,9.74,0,0,1,2-1.69c-.2.13-.59.44-.43.34a8.49,8.49,0,0,1,1.57-.92l-.61.31-.53.34a10.83,10.83,0,0,1,2.34-1.13,9.92,9.92,0,0,1-1,.4,13.42,13.42,0,0,1,1.47-.52,11.23,11.23,0,0,1,1.26-.25A9.76,9.76,0,0,1,58,3.26H56.46c-.08,0,.28,0,.74,0a11.22,11.22,0,0,1,1.31.09c.05,0-.59,0-.54,0,.4,0,.64.07,1,.12a5.9,5.9,0,0,1,1.22.36,9.69,9.69,0,0,0-2.59-.49,10.77,10.77,0,0,0-2.49.15c-.57.11.3,0-.26.07A10.44,10.44,0,0,0,51.8,4.79a1.11,1.11,0,0,0-.22.15A14.54,14.54,0,0,0,48.9,7.31c-.5.47-2.34,2.33-3,3.05-.27.24-1,1-1.63,1.59,0,.06.74-.7,1.09-1-.22.26-.37.37-.9.9-.39.38-.07.11-.17.22,1.12-1.1,1.47-1.49,2-2L49,7.19A15.86,15.86,0,0,1,51.58,5c-.52.37-.41.33-1,.82a10.39,10.39,0,0,1,1.24-.88c.07-.06,0,0-.43.25a9.41,9.41,0,0,1,1.79-1s-.12.07.23-.06a6.25,6.25,0,0,1,1.22-.42c-.43.15-.44.13.23,0,.43-.08.17-.06-.24,0,.06,0,.75-.15.76-.17.59-.09,1.18-.11.73,0a8.75,8.75,0,0,1,4,.44c.69.21,1.4.56,1,.34a12.87,12.87,0,0,1,1.8,1,7,7,0,0,1,1,.82l-.58-.51a8.92,8.92,0,0,0,.72.69,8.14,8.14,0,0,1,1.14,1.36c.16.26-.49-.66-.33-.41a2.52,2.52,0,0,0,.31.41,6.49,6.49,0,0,1,.58.91,7,7,0,0,1,.53,1.09c0,.08,0,0-.06-.23a11.33,11.33,0,0,0-.85-1.56,10.8,10.8,0,0,0-.72-1,9.92,9.92,0,0,1,2.31,4.89,10.13,10.13,0,0,1-.53,5.19,9.41,9.41,0,0,1,.31-1,10.44,10.44,0,0,0,.26-3.78A10.19,10.19,0,0,0,65.75,8.5a10.15,10.15,0,0,1,.55,1.18,7.89,7.89,0,0,1,.29.93,11.16,11.16,0,0,1,.3,1.26c.07.56,0,.35.07.75l0,.77c0,.12,0,.33,0,.51l0,.51a10,10,0,0,1-.9,3.18,1.27,1.27,0,0,1-.24.44c-.37.67.13-.19,0,0a6.2,6.2,0,0,1-.54.85c-.33.45-.06.12-.13.25a16.48,16.48,0,0,1-2,2.17l-1.9,1.91-.36.34-1.08,1.08c-.36.37-.9.9-1.07,1.09l-.54.52-4.31,4.32c-.16.13.46-.48.53-.57l1.8-1.79c.34-.35.13-.18.71-.75-.57.54-1.06,1.08-1.61,1.64-.19.16-1.2,1.2-1.09,1-.31.32.19-.15-.34.41l-.91.89a8.55,8.55,0,0,0,.73-.7C53.51,31,52.54,32,52,32.57L50.53,34l-.54.52-.36.38c-.4.4-.71.68-1.07,1.08s-.34.33-.37.34l-1.07,1.1c0-.06.31-.33.71-.74-.25.25-.48.46-.72.69a5.15,5.15,0,0,0-.71.75c-.13.11-1.08,1-.9.9s.69-.7,1.26-1.25l-.89.91c.11-.09,1-.95,1.08-1,.8-.81.95-1,1.44-1.42-.07.1-.78.74-.89.9a4.07,4.07,0,0,0,.36-.36c.58-.56-.82.89.55-.48-.08.12-1.45,1.41-1.62,1.64.67-.65,1.11-1.1,2-1.95.52-.54-.24.21,0-.05.45-.44.46-.42.73-.66.41-.42.73-.76,1.07-1.08-.65.7-1.86,1.88-3,3.08.07-.09.56-.57.35-.4-.7.69-.29.33-1.07,1.11l.18-.17c-.59.61-1.32,1.36-1.42,1.51-.57.57-.56.54-.9.88L42.87,42a4.63,4.63,0,0,1,.54-.57c-.55.5-1.91,1.91-2,1.93-.75.76,0,0,.37-.3,0,0-.63.64-.89.9.53-.56-.29.24-.38.3-.88.91-1.24,1.31-2.5,2.57-.48.48-.35.33-.54.51l-.36.37c-.37.37.53-.5-.17.21-.39.39-.35.33-.37.33-.55.57-1,1-1.79,1.82-.47.47-.51.48-1.26,1.24l.54-.53L30.49,54.4c-.37.36-.16.11-.73.67-.26.27.07,0,0,0l-.77.77a2.54,2.54,0,0,0-.6.73A1.27,1.27,0,0,0,28.65,58s0,.07.15.16a1.41,1.41,0,0,0,.75.26,1,1,0,0,1-.39-.09l.39.09a1.75,1.75,0,0,0,1.3-.7,1.94,1.94,0,0,1-1,.67A1.39,1.39,0,0,1,28.61,58a1.49,1.49,0,0,1-.26-.37,1.1,1.1,0,0,1-.11-.58c0,.34-.06-.07.16-.53a2.49,2.49,0,0,1,.54-.66l.46-.45.53-.57c.46-.45.47-.42.73-.67.54-.56.63-.6,1.44-1.42.24-.3-1.11,1.06-.56.46a9.06,9.06,0,0,1,.91-.83c.78-.77.82-.85.36-.39a2.27,2.27,0,0,1,.36-.35c.61-.61.86-.86,1.26-1.24s.25-.3-.19.15c.24-.26.8-.78,1.08-1.08,0-.07-.18.15-.19.15-.29.31-1.14,1.14-1.07,1.1-.67.67-.58.58-1.26,1.24-.1.08.34-.35.35-.38s-.31.33-.35.37l-.55.52-.89.91c-.24.25-.14.17-.17.21-.73.73-.83.81-1.26,1.23a9,9,0,0,0-.71.75,5.62,5.62,0,0,0-.82.84,1.46,1.46,0,0,0-.1,1.13,1.37,1.37,0,0,0,1.23.9c-.1,0,.11,0,.38,0a1.86,1.86,0,0,0,.78-.47c.55-.56.34-.4,1.24-1.29l-.53.55c.05,0,.79-.78.9-.89l-.37.33c-.5.47-.85.84-.54.51-.56.53-1,1.17-1.63,1.22a1.65,1.65,0,0,0,.8-.42l1.18-1.17,2.88-2.87c-.13.15.19-.15.19-.13L37,51.66a9.54,9.54,0,0,1-.71.75c.52-.48.79-.82,1.25-1.29l1.08-1c.34-.34,0,0-.54.52.35-.41.64-.63,1.08-1.06a4.74,4.74,0,0,0,.53-.59c.71-.71-.21.25.55-.5.09-.12.91-.92.71-.76.55-.53,1.53-1.55,1.08-1.06.48-.49,1.42-1.41,1.61-1.62s0,0,0,0c.58-.57.24-.28.53-.57s.48-.5,1.43-1.43L45,43.6l-7.71,7.75c-.25.25,0,0,.18-.17-.62.64-1.3,1.32-1.79,1.81l-.54.53-.36.36c-.28.28.24-.26-.72.71.29-.36,1.24-1.26,1.79-1.83-.78.75-1.92,1.87-3.24,3.19a1.4,1.4,0,0,0,.17-.21c-.72.73-.4.45-.16.25.79-.78.58-.62,1.25-1.28-.09.13-.77.86.38-.28L31.79,57a18.51,18.51,0,0,1-1.37,1.31,1.37,1.37,0,0,1-1.56.06A1.31,1.31,0,0,1,28.17,57a1.5,1.5,0,0,1,.4-.91l.8-.81c.35-.35.14-.17.71-.74a4.13,4.13,0,0,1,.56-.48c.86-.88.67-.69,1.79-1.81.07-.09-.13.1-.19.15L31,53.72c-1.1,1,.71-.8,1.6-1.68l-.17.2c.09-.09,1.06-1.07.89-.91l4.85-4.86c1.11-1.11,2.27-2.28,3.23-3.23L43,41.6c.71-.72,1.4-1.4,1.79-1.82-.11.07-1,1-1.09,1-.79.81-2.11,2.13-2.34,2.31s-.73.78-1.42,1.49c-.15.17.25-.24.19-.14-1.1,1.1-.59.53-.38.29l-1.44,1.43c-.34.34.29-.25-.17.22.08-.06.85-.88,1.26-1.26-.18.19-.48.5-.53.57L34,50.56c-.58.55,1.12-1.11.89-.92a4.68,4.68,0,0,0-.37.35l-.71.71c-.47.47-.13.17-.71.74.42-.46-.25.2-.55.51s0,0-.35.37-.83.79-1.26,1.24c.18-.16.79-.78.72-.68-.56.57-.47.46-.9.88l-.35.36c-.12.15.37-.35.54-.51s-.52.53-.54.55l-.71.73c-.38.4-.91.87-1.32,1.37a1.47,1.47,0,0,0,0,1.8,1.29,1.29,0,0,1-.32-.7,1.48,1.48,0,0,1,.22-1,1,1,0,0,0-.2.43,1.51,1.51,0,0,0,.05.91,1.25,1.25,0,0,0,.54.72c.36.18.22.11.05,0s-.34-.29-.19-.17a1.77,1.77,0,0,0,1,.4,1,1,0,0,0,.55-.06,2.78,2.78,0,0,0,1-.72l.74-.72c.34-.34.11-.14.36-.4.92-.92.75-.71,1.8-1.77-.1.14.68-.64.55-.46-.62.59-1.26,1.27-1.61,1.64.06,0,.45-.44.72-.71-.14.15-.19.21-.17.21a3.56,3.56,0,0,1-.54.52c-.26.25-.44.47-.54.54-.26.25-.17.15.35-.37-.33.32-.19.14.17-.23-.25.23-.61.63-1.07,1.08-.06,0-.29.26-.19.13-.55.54-.17.21-.71.75-.05.08.69-.68.54-.5a7,7,0,0,1-.93.86,1.54,1.54,0,0,1-1.46.25c.22.06.31,0,.17,0a1.73,1.73,0,0,1-.95-.61c-.18-.28-.09-.13,0,0s.23.24,0,0a1.28,1.28,0,0,1-.23-.38,1.5,1.5,0,0,1-.09-.79c0,.1,0-.19.15-.46-.05.17-.13.49,0,.06s.1-.3.78-1c.24-.2-.59.61-.35.41a7.33,7.33,0,0,0,.71-.75c.35-.34,0,0,.72-.69a6.28,6.28,0,0,1,.53-.58c-.16.13-.44.46-1.07,1.08.27-.3-.41.39-.55.52s0-.06,0,0-.46.45-.37.34l.9-.91-.36.38c.45-.44.75-.74.9-.91-.09,0-.94.89-1.62,1.6a6.26,6.26,0,0,1,.71-.74c-.34.31-.53.48,0-.06-.05,0-.36.34-.36.34a2.44,2.44,0,0,0-.84,1.29,2,2,0,0,1,.75-1.22l1.7-1.7L32,52.28s-.54.57-.72.73c.58-.55.61-.62,1.08-1.09l.54-.52.89-.92.72-.71c.6-.59,1.36-1.38,1.8-1.79-.13.18-.84.9-1.79,1.83.06,0,.82-.79,1.44-1.41s.2-.21.18-.21a4.08,4.08,0,0,0,.53-.56c.32-.32.9-.89.72-.73a4.53,4.53,0,0,0-.38.37c-.19.19-.41.42-.52.52l2.87-2.88.71-.74,2.69-2.69,3.77-3.77s0,0,0,0l.71-.72c-.36.43.38-.39,1.26-1.26.21-.21.15-.16.18-.2.73-.73,1.72-1.74,2-2l1.08-1.09c.14-.11-.09.14-.71.75,0,0,.55-.52,1.08-1.05.12-.16-.19.15-.19.13l6.42-6.44,3.21-3.21,1.6-1.61a19.7,19.7,0,0,0,1.54-1.64A9.77,9.77,0,0,0,61.15,4.48a9.66,9.66,0,0,0-5.38-.83,7.07,7.07,0,0,0-.74.14,9.77,9.77,0,0,0-3.65,1.58A15.41,15.41,0,0,0,49.5,7.05L44.65,11.9c-.83.83-1.88,1.91-3,3-.92.94-1.62,1.64-2.34,2.34a4.16,4.16,0,0,1,.37-.34l-4,3.95.36-.38c-.74.72-.45.48-.89.93s-.11.06,0-.05l-1.25,1.28-1.62,1.62-.9.89-2.15,2.17-.54.52c-.32.31-.47.5-.9.9l-2.87,2.9-.72.71-.71.72-.55.53-.53.54-2.7,2.69-.89.91-.55.52-1.61,1.63-1.25,1.27-.72.71L10.54,46l-.54.53c-1.21,1.23-2.31,2.3-3,3.08l-.5.54A7.82,7.82,0,0,0,5,53.85a3.15,3.15,0,0,1-.06.48c0,.29,0,.22,0,.27a7.87,7.87,0,0,0,.84,3.85,7.41,7.41,0,0,0,1.15,1.62c.19.21.49.51.31.37.83.74.26.2.6.47a6.43,6.43,0,0,0,1,.64,4.82,4.82,0,0,0,1,.46,1.81,1.81,0,0,0,.49.15,7.51,7.51,0,0,0,4.65.07,7.11,7.11,0,0,0,1.57-.73,11,11,0,0,0,2.18-1.86c.71-.72,1.38-1.38,1.73-1.7l.35-.39,3.23-3.22c.28-.32.7-.72,1.43-1.46a3.32,3.32,0,0,0-.36.33l-.54.55-.54.53-.71.74-1.08,1.07-1.8,1.79-.54.52-1.26,1.26A12.58,12.58,0,0,1,17.06,61a7.29,7.29,0,0,1-3.13,1.41c-.07,0,.23-.06.25-.07a5.15,5.15,0,0,1-1.46.13c-.29,0-.21,0-.26,0a5.69,5.69,0,0,0,1.23,0,6.52,6.52,0,0,1-1.66,0,8.18,8.18,0,0,1-2-.45c-.56-.24-.74-.26-.92-.37-.43-.26.1.06.48.18.23.09-.06,0,.47.17l.47.16A4.8,4.8,0,0,1,9.81,62a8.17,8.17,0,0,0,2.4.55c.2,0-.28,0-.75-.11s-.91-.21-.68-.16a7.39,7.39,0,0,1-3.1-1.5c-.29-.18.93.71.77.59a6.77,6.77,0,0,1-2-1.83c.22.37,1.26,1.33.68.74a3.77,3.77,0,0,1-.67-.74c.11.07-.18-.22-.4-.64a8.24,8.24,0,0,1-.56-1.07l.21.51c.1.23.28.5.45.8-.07-.1-.23-.37-.42-.69a10.34,10.34,0,0,1-.44-1.09c.21.55-.12-.42-.19-.94,0-.14,0,.08,0,.25s.07.29,0,0A8.91,8.91,0,0,1,5,55.14c0-.7,0,.4,0,.49a7.52,7.52,0,0,1,.79-4.15,15,15,0,0,1,3.17-3.75c.21-.21,1-1,1.26-1.26,1-1,3-3,3.77-3.76-.27.3-1.21,1.23-2,2L9.12,47.58c.07,0,.5-.48.2-.13l1.25-1.26-.9.88c.4-.45,1.09-1.08,1.8-1.79.06-.1-.82.82-.55.51L25.29,31.44l.9-.89,1.07-1.09c.61-.6,1.35-1.29,1.8-1.78.07-.05.72-.71.91-.88s.17-.19,0,0l9.16-9.18c.26-.25,0,0,0,0l2.15-2.17s-.7.71-.71.75c.57-.56,1.35-1.38,1.8-1.8,0,0-.76.75-.9.92L40.2,16.58l-.35.37c-.05.07,0,0,.36-.33a5.6,5.6,0,0,0-.7.78c.3-.26,1.05-1.06,1.44-1.42.1-.07-.57.58-.72.72s-.09.12-.17.2l-2,2c-.31.29-.29.22.17-.24a7.86,7.86,0,0,0-.73.7c-.56.54.37-.4.35-.4-.39.39-.57.57-.53.56l-1.08,1.06c.3-.34,1.16-1.15,1.43-1.46.62-.61,1.37-1.32,2-2,.23-.27-1.43,1.43-.73.69l-1.79,1.82a8.1,8.1,0,0,1-.72.69c-.75.77-2.26,2.27-3.59,3.59-.67.69-1.62,1.65-2.16,2.17l-1.61,1.64s.22-.24.18-.22c-.45.45-.44.46-.72.75l-1.79,1.8.72-.7L26,30.82l-1.8,1.76c-.27.27.07-.06,0,0-.74.74-1,1-1.8,1.78-.18.19-.18.21-.53.56a4,4,0,0,0,.36-.35c-.58.6-1,1-1.44,1.43s.22-.2-.17.21c-.59.58-.27.19-1.27,1.21a3.34,3.34,0,0,1,.37-.33l-1.08,1.08s.19-.21,0,0-.48.5-.18.19c.09-.06-1,1-.89.92.22-.2,1.66-1.68,1.44-1.41.24-.24.14-.17.17-.21ZM39,18s-.14.07-.73.66v.05Zm-.21.07-.54.54a8.75,8.75,0,0,0,1.09-1C39.62,17.22,38.48,18.39,38.77,18.05ZM25.12,31.67c.53-.53.17-.11,1.09-1.05.2-.23-.29.26-.37.33C26,30.81,25,31.78,25.12,31.67Zm4.49,27.05a1.63,1.63,0,0,0,.94-.33c.26-.2.41-.38.37-.36a3.75,3.75,0,0,1-.48.41,1.14,1.14,0,0,1-.34.18s.06,0-.46.05Zm4.57-8.45.53-.54c-.13.11.18-.21.17-.23A5.94,5.94,0,0,0,34.18,50.27Zm-.38.28c.38-.4.18-.22.89-.95C34.05,50.23,33,51.36,33.8,50.55Zm-3.22,3.28s.75-.81-.19.13c.19-.16-.37.4-.53.58Zm.19-.13-.35.38.72-.71C31.18,53.3,31.08,53.39,30.77,53.7Zm.88-1c.05-.07.25-.27.17-.21l-.72.71C31.07,53.27,31.09,53.27,31.65,52.71Zm3.43-3.3c-.56.53-1.14,1.14-2,2l-.37.34s.31-.33.36-.38c-.45.43-.41.36-1.09,1l-.71.75a10.63,10.63,0,0,0,1.27-1.19c.12-.13-.24.23-.36.35s-.55.5-.19.14.78-.76.73-.67Zm.39-.2c-.51.51-.91.91-1.07,1.09.64-.66.53-.53,1.08-1.07Zm3.8-3.67c-.15.14-1.41,1.38-1.26,1.26S39.34,45.49,39.27,45.54ZM41,43.65c-.9.91-1.56,1.52-2.33,2.33a12.09,12.09,0,0,0,1.08-1.06C40.49,44.21,40.72,44,41,43.65Zm2.52-2.51-2,2C41.91,42.84,43,41.7,43.56,41.14Zm.74-.63c-.82.82-1.76,1.71-2.34,2.34ZM37.39,47l.18-.19a5.14,5.14,0,0,0-.72.69C36.8,47.54,36.92,47.44,37.39,47Zm.21,0c.11-.14-1,1-1.44,1.42.29-.33,0,0-.72.68C35.29,49.26,37.05,47.5,37.6,46.94Zm0-.06a7.77,7.77,0,0,1-.72.69l-.72.74c.71-.71.79-.77.37-.33C37,47.52,37.84,46.64,37.59,46.88Zm.15-.31c.51-.49.34-.27,1.27-1.21.19-.21-.34.31-.37.33s.42-.44.36-.39a7.88,7.88,0,0,0-.73.7C38.47,45.87,38,46.3,37.74,46.57Zm4.14-4.07c.21-.14-1.49,1.48-.89.94-.62.61-.75.76-1.07,1.09l-2,1.93v0c.8-.81,1.27-1.26.91-.87l2.51-2.54C41.14,43.27,43,41.38,41.88,42.5Zm1.95-2.09L42,42.23l-2.51,2.5c-.06.08,0,0,.19-.14L41,43.32l-.9.89c.49-.52,1.17-1.17,1.44-1.42-.94,1-.27.31-.89,1l-.72.71s.55-.52.55-.5-.87.88-.36.38.56-.61,1.43-1.48c-.48.44.25-.3.53-.58-.34.34.11-.15.35-.39,0,.11,1.27-1.24,1.45-1.39v0l-.71.71-.37.35A13.77,13.77,0,0,0,43.83,40.41Zm.93-.75.9-.89A11.25,11.25,0,0,0,44.76,39.66Zm1.06-1.16a6.65,6.65,0,0,0-.53.56c-.48.48-1.06,1-1.07,1.1l1.43-1.44C45.5,38.85,45.9,38.45,45.82,38.5Zm1.07-1.12c-.31.32-.9.87-1.08,1.08.14-.14.21-.2.19-.16C46.44,37.85,46.87,37.43,46.89,37.38Zm1.26-1.24c.58-.59.14-.11.72-.7.28-.28.15-.18.72-.73.21-.25-.58.57-.37.32.53-.53.9-.85,1.08-1.07L49.22,35l-2,2s0,0-.17.21c-.88.89.49-.48.54-.55.23-.24.54-.51.71-.71C48.14,36.17,47.9,36.4,48.15,36.14Zm2.17-2.09-1.08,1.07c-.22.24.58-.58.37-.33l-1.08,1.07c-.3.31,0,0,0,0,.53-.54,1.43-1.43,1.61-1.64C49.31,35.09,50.27,34.11,50.32,34.05Zm.71-.77a8.32,8.32,0,0,0,.91-.85c-.32.32-.42.4-.37.33.32-.32.9-.89.71-.74l-1.43,1.43c-.24.24-1.3,1.3-.72.73Zm-.52.65c.24-.23,1.74-1.71,1.26-1.25C51.73,32.7,50.72,33.7,50.51,33.93ZM52,32.52c-.59.57-.14.17-.72.74-.28.28-.14.12-.54.52v0c.68-.67.86-.86,1.44-1.42C52.23,32.27,51.52,33,52,32.52ZM53.37,31c.21-.24-1.55,1.51-1.08,1.06Zm.74-.65-1.44,1.41C52.58,31.89,53.73,30.76,54.11,30.36Zm2-2c-.45.45-1.44,1.4-1.62,1.62C54.91,29.54,56,28.44,56.08,28.36Zm.7-.8c-.45.46-.84.8-1.08,1.06C55.93,28.41,56.58,27.8,56.78,27.56Zm0-.07L54.6,29.63c-.16.21,1-1,.91-.86s-.18.21.18-.16c.1-.11-.22.16.17-.23A12.43,12.43,0,0,0,56.76,27.49Zm6.65-6.63a14.75,14.75,0,0,0,1-1.1c.12-.14-.14.13-.42.45Zm-6.07,6.26.36-.36a4.08,4.08,0,0,0-.71.76l.72-.72C57.83,26.65,57.35,27.14,57.34,27.12Zm.5-.69a6.41,6.41,0,0,0-.54.5c-.06.07-.26.27-.18.22Zm2.55-2.36L58.6,25.89s.5-.53.71-.76c-.56.54-1,1-1.25,1.29.95-.93,1.54-1.55,2.16-2.13C60.07,24.42,60.47,24,60.39,24.07Zm-.56.42c1.81-1.82-.73.7-.72.72Zm2.33-2.33v0s1.29-1.29.72-.73l-1.8,1.78c-.28.33.93-.91.73-.66l-.72.72c.1-.15-1.71,1.62-2,1.95l1.62-1.61c.35-.3-.59.62-.53.59Zm2.67-2.63c-.45.54-.34.37-.68.75s.23-.21-.16.21c-.08.06-.24.24-.54.54-.12.08.33-.36,0,0s-.67.66-.72.73c.1-.1.21-.2,0,0-.91.92-.77.74-1.26,1.22.07,0-.31.36-.16.26l1.62-1.61s0-.07.35-.37A17.18,17.18,0,0,0,64.51,20C64.59,19.87,65,19.39,64.83,19.53Zm-.18.15-.86.93c.19-.23-.45.42-.37.31-.37.36-.67.7-.35.38,0,0,.31-.33.36-.36v0c-.37.37-1.18,1.17-1.26,1.26.35-.32.85-.84,1.26-1.25a12.26,12.26,0,0,0,1.69-1.88C65.21,18.92,64.87,19.45,64.65,19.68Zm1.42-2.43a7.17,7.17,0,0,1-.58,1.11,10.14,10.14,0,0,0,.77-1.59c.06-.2.09-.33,0-.27A9.39,9.39,0,0,1,65.07,19a3.22,3.22,0,0,0,.3-.39s-.28.43-.28.43a4.27,4.27,0,0,0,.29-.41c.06-.09-.26.46.13-.2C65.25,18.81,66.08,17.4,66.07,17.25Zm.71-2.12A10.14,10.14,0,0,1,66,17.54,7.57,7.57,0,0,0,66.78,15.13Zm.09-.85,0-.43c0-.3,0-.17,0-.75a5.67,5.67,0,0,0-.09-1,10.35,10.35,0,0,1,.07,1.51c0-1.2,0-.71,0-1a8.2,8.2,0,0,0-.23-1.5c0,.08.14.56.18,1.13a11.79,11.79,0,0,1,.06,1.61s0-.21,0-.26c0,.77,0,.48-.1,1.26,0,.39.12-1.12.11-.73a8.62,8.62,0,0,1-.18,1.24c0,.14,0-.13.11-.46s.07-.71.09-.77,0,.08,0,.19C66.84,14.55,66.85,14.43,66.87,14.28Zm-.4-3.92c.37,1.3.17.59.28,1a9.54,9.54,0,0,1,.14,3c0-.37,0-.21,0-.23a10,10,0,0,0-.43-3.78ZM62.41,5s.09.07.19.16c.51.37.65.46.83.61A8.79,8.79,0,0,0,62.41,5ZM59.82,3.88a12,12,0,0,1,1.42.54A7.43,7.43,0,0,0,59.82,3.88Zm-5.51.05a9.84,9.84,0,0,1,1-.23,2.22,2.22,0,0,0-.48.07A1.88,1.88,0,0,0,54.31,3.93Zm-.22,0a12.15,12.15,0,0,1,2.49-.44A10.28,10.28,0,0,0,54.09,3.92ZM50,6.28l.77-.66v0C50.46,5.84,50.05,6.22,50,6.28ZM48.56,7.75a13.92,13.92,0,0,0,1.25-1.29c-.11.11-.7.67-.72.72.11-.11.21-.21.18-.17A7.15,7.15,0,0,0,48.56,7.75ZM46,10.23c-.07.11.72-.72,1.07-1.08s1.25-1.22,1.44-1.44Zm-1.42,1.52.62-.61a5.56,5.56,0,0,0,.45-.47C45.38,11,44.64,11.71,44.62,11.75Zm11-8.37a10.19,10.19,0,0,1,2.05-.06A7.72,7.72,0,0,0,55.66,3.38Zm-2.72.77a12.7,12.7,0,0,1,1.71-.58c-1,.28-.58.15,0,0A10.42,10.42,0,0,0,52.94,4.15Zm-2.6,1.6.81-.59A3.85,3.85,0,0,0,50.34,5.75Zm-.56.57c1-.94-.7.69.57-.48C50.64,5.56,50.23,5.87,49.78,6.32ZM44.93,11.2c-.21.2-.19.18-.18.15l-.72.72A11.9,11.9,0,0,0,44.93,11.2Zm-1.46,1.32s-.06.1.19-.14a6.9,6.9,0,0,1,.54-.53s-.46.46-.35.38l2.69-2.7,1.08-1a15.43,15.43,0,0,0-1.24,1.3l1.78-1.85s-.58.57-.36.34.74-.77.9-.89l-.54.54.9-.87c-.2.21-.19.22.19-.15-.14.11.62-.63.35-.4-.45.45-.56.57-.72.71l.52-.62-.72.72c-.23.26.72-.68.19-.15-.17.18-.79.8-.72.71l.36-.36L46.89,9.13c-.37.37-1,1-1.08,1.08l1.81-1.76c-.52.55-1,1-1.44,1.41s-1.33,1.36-1.62,1.62c0,0,1.18-1.16.89-.92Zm-3.37,3.6a13.57,13.57,0,0,0,1.27-1.21c-.2.2-.28.27-.36.34L42.26,14c-.2.23.29-.27.37-.33l1.25-1.26c-.13.1-.13.11,0-.05Zm-5,5.06,1.62-1.63s-.52.53-.54.57l.36-.35.36-.36s-.07,0,.17-.21.93-.93,1.44-1.44v0c.73-.76,1.9-1.87,2-2-.75.77-1.33,1.31-.91.86-.7.7-1.31,1.32-1.61,1.64C37,19.24,35.39,20.8,35.08,21.18ZM31.25,24.7c.53-.54.67-.65.9-.91l-.9.89Zm-1,1.24,1.08-1.07c.13-.14-.14.12-.45.42Zm-.16.25c1.19-1.19-.16.19.37-.32l2-2c.44-.45-.33.3.17-.21s.88-.85,1.45-1.39a7,7,0,0,0,.53-.59c-.65.65-1.44,1.43-.72.73L32.2,24C31.8,24.47,30.59,25.62,30.05,26.19Zm-.17.22c-.22.22-.11.1,0,0l-.9.87C28.62,27.63,29.49,26.83,29.88,26.41Zm18.29-7.58a4.74,4.74,0,0,0-.78-.24c1,.27-.73-.18.49.17C48.17,18.86,48,18.78,48.17,18.83Zm1,10.74a11,11,0,0,0,1.71-1.93,7.81,7.81,0,0,1-.76.95Zm-8.39,8.65,1.08-1.07S40.79,38.17,40.77,38.22Zm-2.7,2.7,1.44-1.44C39.33,39.65,38,41,38.07,40.92ZM20.83,58.14l.35-.4-.72.71S20.43,58.53,20.83,58.14ZM10.64,62.65c.48.12.61.14.77.17a4.49,4.49,0,0,0,1,.12c.14,0-.89-.09-.24,0A11.63,11.63,0,0,1,10.64,62.65Zm-3.83-1.9a7.48,7.48,0,0,0,.8.69c.08,0-.39-.3-.59-.51,0,0,.58.45.45.32C6.27,60.22,7,60.85,6.81,60.75ZM8.26,47.63c-.52.51-.91.91-1.07,1.09C7.85,48,8.24,47.69,8.26,47.63ZM13,43.13l-.9.9A10.91,10.91,0,0,0,13,43.13Zm1.4-1.56c-.47.47-1,1-1.07,1.09C13.67,42.29,14.55,41.43,14.37,41.57Zm2.88-2.85a11.86,11.86,0,0,0-1.07,1.11A14.26,14.26,0,0,0,17.25,38.72Zm4.16-4c-.14.11-.57.52-1.26,1.22A11.82,11.82,0,0,0,21.41,34.72Zm3.38-3.57L23,32.91c-.1.14.31-.28.55-.52C24,32,24.61,31.36,24.79,31.15Zm2.92-2.63c-.78.78-1.23,1.26-1.6,1.66.49-.5,1.26-1.23,1.61-1.61C27.32,29,27.57,28.66,27.71,28.52ZM23.23,33c-.1.14,1-1,1.44-1.42l.72-.73c-.11.13.08,0,.54-.51.13-.16-.49.47-.37.31.7-.68.78-.79,1.08-1.1Zm-9.52,9.5c.14-.14.21-.21.19-.17l.89-.89C15,41.29,13.6,42.64,13.71,42.54ZM10.3,46c.41-.41.68-.67.72-.73l-.72.71ZM9,47.21a12.13,12.13,0,0,0,1.09-1c.18-.22-.22.2-.36.33,0,0,.26-.28,0,0ZM8.41,61.57A4.9,4.9,0,0,1,7.62,61c-.21-.15-.37-.28-.46-.36.27.26.45.36.59.49a3.63,3.63,0,0,0,.63.43ZM25.89,36.16c-.07.05.39-.42.89-.93-.36.36-.23.21-.72.7C26,36,25.16,36.9,25.89,36.16Zm-3.95,4c.14-.13.21-.2.19-.16.6-.6.58-.6.89-.92C22.7,39.36,22,40.08,21.94,40.12Zm-6.85,25.5a8.5,8.5,0,0,0,1.44-.45C16.28,65.27,15.45,65.53,15.09,65.62Zm-3.71.12c.45.06.58.06.49.07a10.22,10.22,0,0,0,1.75,0c.08,0-1.2,0-1.48,0a.83.83,0,0,1-.26,0S11.22,65.69,11.38,65.74Zm-4.1-1.22a9.2,9.2,0,0,0,1.37.61A12.72,12.72,0,0,1,7.28,64.52ZM43.18,8.7c.7-.68.69-.73,0,0Zm-4.84,4.86a13.68,13.68,0,0,0,1.08-1.05C39.52,12.38,38.89,13,38.34,13.56ZM36,15.08c.25-.22,0,.12.55-.48.15-.16.24-.26.17-.22Zm-4.67,4.65a3.34,3.34,0,0,0,.37-.33c-.12.14-.36.4.36-.32a1.62,1.62,0,0,0-.18.16c.39-.39.57-.58.53-.57C31.83,19.3,31.69,19.42,31.37,19.73ZM31,21.05c.5-.51,1.69-1.67,1.62-1.64s-.27.29-.72.73c0,0-.06,0-.36.34C31.82,20.23,30.93,21.1,31,21.05Zm-1.23.36a11,11,0,0,0,.89-.93c-.68.68-1,1.08-1.79,1.82C28.71,22.48,29.45,21.73,29.77,21.41Zm-2.15,2.2c.27-.29.9-.92.89-.95C27.68,23.48,26.84,24.38,27.62,23.61ZM17,35c-.43.42-.34.31-.91.87A11.23,11.23,0,0,0,17,35ZM3.56,48.35v0c-.15.21-.31.41-.44.63S3.16,48.89,3.56,48.35Zm16,15.09a15.41,15.41,0,0,1-1.66,1.18A13.27,13.27,0,0,0,19,63.85C19.45,63.55,19.73,63.28,19.54,63.44Zm2.4-2.23c-.44.44-.39.35-1.09,1,0,0,.21-.18.45-.41Zm1.59-1.73c-.05.09,1-1,1.25-1.25C24.37,58.63,23.86,59.13,23.53,59.48Zm6.66-6.55c-.48.49-.35.33-.54.52-.72.71-1.33,1.32-1.61,1.63-.05,0-.4.38-.55.52-.95,1-2.37,2.38-3.41,3.41.17-.15-1,1-.36.38l.72-.73c.07,0,.71-.67,1.09-1l.89-.91,1.45-1.41.53-.55,1.08-1.07C29.87,53.29,30.19,53,30.19,52.93ZM51.92,31.19l-1.27,1.23-.89.92c-.18.17-.14.12-.18.17s-.16.17-.18.18c-.91.92-1.41,1.43-1.61,1.65.68-.68,1.71-1.71,2.69-2.71C51,32.12,51.74,31.41,51.92,31.19ZM35,23.09c.42-.41.75-.72,1.08-1.07C36.22,21.82,34.87,23.18,35,23.09Zm3.23-3.28c-.69.66-.71.75-.36.4C37.71,20.32,38.47,19.58,38.21,19.81Zm-.91.85c.42-.42.34-.3.9-.87C39.14,18.83,37.61,20.3,37.3,20.66Zm15,10.14c0,.07.4-.39.36-.32s-.35.36-.35.37A6.91,6.91,0,0,0,53,30S52.81,30.23,52.27,30.8Zm.14-13.06a10.44,10.44,0,0,1,1.35,1.63A7.07,7.07,0,0,0,52.41,17.74Zm-6.47-2.58a7.48,7.48,0,0,1,1.81.24s.5.09,0,0A8.25,8.25,0,0,0,45.94,15.16Zm-11.82,8c.23-.22.88-.87.9-.91C34.79,22.46,34.13,23.11,34.12,23.15Zm1-.45c.63-.62.8-.81,1.43-1.45a8.57,8.57,0,0,0,.72-.71l.91-.87c-.15.1,1-1,1.07-1.11.31-.33.91-.89.73-.69a11.16,11.16,0,0,0-.91.89l.91-.87a11.18,11.18,0,0,1,1-.8,4.33,4.33,0,0,1,.87-.53h0a9.93,9.93,0,0,1,1.62-.68,8.27,8.27,0,0,0-.94.33,8.66,8.66,0,0,1,2.69-.66,3.6,3.6,0,0,1,.49,0,9.71,9.71,0,0,1,1.75.17s0,0,0,0a9.4,9.4,0,0,1,1.47.4s-.06,0,.21.1c.53.18,0,0-.2-.11a8.42,8.42,0,0,1,1.43.57c.43.25.26.16.84.54a5.33,5.33,0,0,1,.81.61,8.31,8.31,0,0,1,2.54,4.29,5.78,5.78,0,0,1,.23,1,8.61,8.61,0,0,1-.06,3.35,8.32,8.32,0,0,1-1.43,3.15,3.2,3.2,0,0,0,.55-.8,8.75,8.75,0,0,0,.72-1.67,8.92,8.92,0,0,0,.23-4.26,4,4,0,0,1-.13-.51,8.54,8.54,0,0,0-1-2.55,7.92,7.92,0,0,0-1.63-2c-.11-.11.56.48-.17-.17a9.5,9.5,0,0,0-1.06-.73,10.83,10.83,0,0,0-4.3-1.42,9.13,9.13,0,0,0-2.77.21c.14,0-.17.07-.57.19a8.16,8.16,0,0,0-1.09.47,7.61,7.61,0,0,1,.7-.35,9.25,9.25,0,0,0-2,1.11c-.16.14.06,0,.32-.21a3.49,3.49,0,0,1,.53-.32A12,12,0,0,0,39.78,18s-.05.07-.36.37c.35-.38-.07.06-.54.53-.76.75-1.34,1.33-1.61,1.63,0,0,0-.07.17-.21-.67.66-.58.59-.89.92-1.16,1.15-2.24,2.22-2.53,2.48,0,0,.32-.34,0,0l-.53.58c-.49.48-.85.8-1.08,1.07.78-.76,1.38-1.38,1.62-1.59-.32.33-.82.82-1.25,1.27-.76.77-.27.26-.9.89C31,26.84,35.19,22.64,35.12,22.7Zm-8.44,8.46a11.18,11.18,0,0,0-.9.88A11.06,11.06,0,0,0,26.68,31.16Zm-5.35,5.56,1.44-1.43c-.13.11-.67.61-.91.87.11-.11.22-.21.19-.17C21.71,36.32,21.45,36.59,21.33,36.72ZM20.06,37.9c.29-.28.92-.92,1.07-1.09C20.84,37.09,20.21,37.73,20.06,37.9Zm-.55.49a12.31,12.31,0,0,0,.9-.88C20.59,37.3,19.85,38.06,19.51,38.39Zm-.65.07c.53-.5.86-.88,1.26-1.28C19.48,37.81,19,38.26,18.86,38.46Zm-.36.31a7.19,7.19,0,0,0-.91.87A9.69,9.69,0,0,0,18.5,38.77ZM16,41.33c.45-.44.87-.87.9-.91C16.62,40.67,15.86,41.43,16,41.33ZM14.7,44a1.71,1.71,0,0,1,.08-.66,1.59,1.59,0,0,1,.26-.49c.29-.39,1.79-1.78,1.94-2-.65.64-1.36,1.38-1.62,1.61.05,0,.57-.57.18-.19a3.42,3.42,0,0,0-.75,1A1,1,0,0,0,14.7,44Zm-.28.37a1.65,1.65,0,0,1-.06-.79,2.21,2.21,0,0,1,.23-.65s0,0-.14.23A1.61,1.61,0,0,0,14.42,44.34Zm5.93-2.5c-.9.92-1.45,1.42-1.8,1.8.55-.54.58-.52,1.27-1.21.21-.22.2-.23,0,0Zm1.81-1.74c-.48.47-.59.6-.53.57C22.11,40.19,22.48,39.79,22.16,40.1ZM32,30.24c-.14.14-.21.21-.19.17L30.6,31.66c0-.06.79-.79.71-.74-.65.63-.66.66-1.26,1.26.28-.24-.05.1.19-.12Zm10.89-10.7a6.53,6.53,0,0,0-.83.6c.16-.12-.27.26-.18.21A8.14,8.14,0,0,1,42.93,19.54Zm3.44-.82a4.82,4.82,0,0,0-1.52.07s.11,0,.24,0a6,6,0,0,0-1.94.65c.12-.05.48-.23.92-.39a6.53,6.53,0,0,1,1.26-.27c.05,0-.07,0,.27-.05a9.78,9.78,0,0,1,1,0c.82.12,1,.21.8.15A6.38,6.38,0,0,0,46.37,18.72Zm-11,23.82c.75-.75,1-1,1.44-1.44-.22.21-.11.1,0,0C36.18,41.71,35.59,42.25,35.36,42.54Zm-.35.38.36-.36c-.38.36-.38.33-.91.86C34.31,43.6,34.93,43,35,42.92Zm-2.52,2.49.63-.63c.24-.24.44-.46.44-.46C33.08,44.82,32.72,45.14,32.49,45.41Zm-3.35,3.7,1.25-1.28C29.62,48.58,29.48,48.74,29.14,49.11Zm-1,.61c.68-.67.82-.8,1.07-1.09C28.86,49,28.27,49.6,28.18,49.72ZM15.8,61.79A6.9,6.9,0,0,0,17.05,61a2,2,0,0,0-.4.25C16.93,61.11,16.06,61.66,15.8,61.79Zm-1.38.5a5.19,5.19,0,0,0,.93-.3c-.58.2.58-.24.89-.46,0,0-.41.22-.82.39A8.29,8.29,0,0,1,14.42,62.29Zm-8.57-4c.06.15.28.51.47.84l.31.4a1.66,1.66,0,0,0,.15.18A8.73,8.73,0,0,1,5.85,58.25Zm1.34-8.57c-.06.08-.2.25-.47.56-.07.11.21-.19.49-.51a3.18,3.18,0,0,1,.52-.55C7.81,49.07,7.48,49.36,7.19,49.68ZM8.8,48.1c-.09.07-.34.31-.55.49C8.31,48.56,8,48.9,8.8,48.1Zm0-.17L7.51,49.2a9.55,9.55,0,0,0-.83.94l.49-.56C7.69,49,8.84,47.91,8.77,47.93Zm6.12-6c.33-.35.82-.84.89-.93l-.9.89Zm-.89,1-.9.9c-.13.16.22-.14.37-.32C13.05,43.83,13.81,43.05,14,42.85ZM16.88,40c-.45.46-1.55,1.53-1.43,1.45C15.9,41,17,39.93,16.88,40Zm0,0c-.08,0-1.51,1.5-2.16,2.14,0,0-.59.6-.53.56ZM47.43,15.72a7.76,7.76,0,0,1,1.49.38l-.74-.21.24.07C48.33,15.94,47.81,15.79,47.43,15.72Zm-15,36.46c.09-.13.67-.69,1.07-1.08C33.31,51.3,32.76,51.83,32.41,52.18ZM50.23,20.61a5.54,5.54,0,0,1,1,1.43,5.08,5.08,0,0,1,.49,1.81s0-.39-.13-.76A6.06,6.06,0,0,0,50.23,20.61ZM30.81,47.76,28.48,50.1ZM48.1,35.93c.26-.31,1.61-1.63,2.33-2.35.5-.49,1.33-1.35,1.44-1.42ZM28.24,58.09a1.52,1.52,0,0,1-.32-1,1,1,0,0,1,.14-.46A1.78,1.78,0,0,0,28.24,58.09Zm16.27-18.6,2.33-2.34Zm16-15.94L57.44,26.6c1.68-1.72,3.2-3.18,5.57-5.57C63.37,20.69,61.25,22.8,60.5,23.55ZM29.55,58.81a1.83,1.83,0,0,1-1.19-.52,1.67,1.67,0,0,1-.47-1.2,1.68,1.68,0,0,0,.59,1.29A2.08,2.08,0,0,0,29.55,58.81Zm5.34-4.61c-.24.27-.61.63-1.07,1.08C34.07,55,34.44,54.65,34.89,54.2ZM32,57.09l-.9.91a2.68,2.68,0,0,1-1.05.72,2.15,2.15,0,0,0,.73-.45l.85-.85A2.37,2.37,0,0,0,32,57.09Zm8.63-13.2,1.25-1.28c.45-.38,1.16-1.16,1.62-1.6a1.35,1.35,0,0,0-.18.2c-.37.37-1.17,1.19-1.26,1.25C41.7,42.86,40.64,44,40.66,43.89ZM35,47.75,38.74,44l-3.41,3.43A2.77,2.77,0,0,1,35,47.75ZM27.49,35.44,26.23,36.7C26.26,36.65,27.55,35.33,27.49,35.44ZM1.1,56.06A9.06,9.06,0,0,1,1,54.46a8.75,8.75,0,0,1,.11-1.3A10.77,10.77,0,0,0,1.1,56.06ZM18.69,44.24l-.87.85a2.15,2.15,0,0,1-1.73.72,2.12,2.12,0,0,1-1.64-1,1.73,1.73,0,0,1-.23-1.14,1.92,1.92,0,0,0,.68,1.66,2,2,0,0,0,1.93.42,3.25,3.25,0,0,0,1.29-.94C18.4,44.5,18.6,44.31,18.69,44.24ZM55.22,25.72c.05-.44,0,.06-.1.71a9.68,9.68,0,0,1-.49,1.62s-.2.44-.35.71a12.14,12.14,0,0,0,.61-1.48A8.31,8.31,0,0,0,55.22,25.72ZM21.36,35.85c.46-.46.92-.92.9-.87A10.8,10.8,0,0,1,21.36,35.85Zm-1.43,7.06c.08-.06-1,1-.9.91-.15.13-1.4,1.42-1.26,1.23Zm5.74-5.74-1.62,1.59S25.87,36.93,25.67,37.17Zm-6.29,6.24c-.59.6-1.27,1.28-1.26,1.24C18.42,44.36,19.43,43.33,19.38,43.41Zm-2.59,2.22c-.12,0,.19,0,.44-.18s.44-.33.33-.21a2,2,0,0,1-.91.45,1.86,1.86,0,0,1-1.08-.09A2,2,0,0,0,16.79,45.63Zm9.38,10.93c.32-.35,1.36-1.38,2-2l4.5-4.48c.74-.74,1.7-1.74,2-2q-2.2,2.22-4.49,4.49ZM41.79,40.93l1.8-1.79C43.15,39.6,42.38,40.36,41.79,40.93ZM52.2,30.53a10.39,10.39,0,0,0,1.08-1.37A7.36,7.36,0,0,1,52.2,30.53ZM44,38.78l.29-.3.71-.72,1.33-1.32C45.71,37,44.67,38.07,44,38.78ZM10.71,65.54a11.78,11.78,0,0,0,2.48.19A10.72,10.72,0,0,1,10.71,65.54ZM2.63,50.31a14.26,14.26,0,0,0-.54,1.39,10.29,10.29,0,0,0-.4,3.59,12.87,12.87,0,0,0,.75,3.52,11,11,0,0,1-.6-2.18A10.18,10.18,0,0,1,2.63,50.31Zm21.21,8.58c.21-.25,2.15-2.18,2-2ZM13.68,65.7l.19,0,.44-.07c.33,0,.68-.13.84-.15A8.46,8.46,0,0,1,13.68,65.7ZM44,19.58a6.09,6.09,0,0,0-1.11.6,9,9,0,0,0-1.2,1.07,10.18,10.18,0,0,1,1-.9A5,5,0,0,1,44,19.58Zm.91-7.6-1.07,1.1c.08-.07.16-.14.36-.34-.28.31-.27.25-.72.71C43.78,13.11,44.5,12.36,44.89,12ZM49.2,7.69c-.14.2-.86.88-1.43,1.45C47.9,9,48.77,8.13,49.2,7.69Zm-5.9,6c-.54.54-1.1,1.1-1.09,1.06S43.46,13.52,43.3,13.71Zm4.12-4.15c-.27.3-1.07,1.08-1.26,1.25-.44.45-.55.57-.89.9C45.85,11.09,46.9,10.07,47.42,9.56Zm-4,3.91c-.15.17-.58.58-.89.9-.12.12-.14.16-.18.2l-.54.53c-.17.17-.49.53-1.07,1.1-.19.16.4-.41.71-.73-.09.06.42-.46-.19.13.22-.24.38-.36.54-.53s0-.06.18-.19l1.26-1.25S43.32,13.61,43.46,13.47Zm-10.05,10-2.16,2.17a5.67,5.67,0,0,0-.54.52c.43-.47,1.5-1.53,2.16-2.16,0,0-.35.31,0,0-.79.79-2.86,2.85-3.07,3l1.8-1.77c.22-.22.62-.64.18-.21C33,23.79,34.86,22,35.9,20.91c-.31.34-1.25,1.28-1.61,1.65a10,10,0,0,0,.72-.7c.67-.65-.68.7-1.07,1.09s.07-.1.17-.22l-1.62,1.61c-.14.17.58-.56.72-.7s-.26.29-.17.2.67-.67.54-.51A1,1,0,0,0,33.41,23.52Zm10.08-9.93-2,2-.71.72-4.49,4.52-.72.69c-.07,0,1-1.05.53-.59l1.43-1.45-.19.17-.45.44-1.16,1.16s.22-.23.17-.21c.92-.88,2.11-2.1,3.42-3.4.08-.07-.26.27-.54.55s-.53.57-.71.76c.66-.62.57-.57.9-.91,1.42-1.42,2.68-2.64,3.77-3.77C42.89,14.19,43.16,13.93,43.49,13.59ZM40.08,17s-.39.38-.54.52.69-.66,1.26-1.23C42,15.09,40.59,16.5,40.08,17Zm-5,4.9.35-.37L35,22c-.23.22-.48.48-.65.65l.36-.35c.1-.07-.48.52.37-.33-.39.42-.53.54-1.08,1.09l.36-.37-1.26,1.25c-.08.07.26-.27.54-.55.49-.53,1.27-1.34,2.5-2.56a1.69,1.69,0,0,0-.17.2c.36-.37.32-.37,1.07-1.11-.05.07.07,0,.55-.5-.17.22-1.11,1.14-1.79,1.83,0,0,.29-.31,0,0S35.59,21.37,35,21.92ZM49.73,7.1c0,.05-.54.54-.54.55L47.76,9.09c-.63.63-1.39,1.38-1.45,1.41l.91-.89v0c-.52.49-1,1-2,2-.21.17.56-.57.9-.91L47,9.72,49.53,7.2c.45-.42-.26.29-.17.22-.17.13-1.52,1.49-2.16,2.14.16-.13.51-.46,1.09-1,.1-.12-.08.05-.54.52C48.42,8.33,49,7.79,49.73,7.1Zm-19,19.13c-.71.74-.92.89-2,2,.79-.77.36-.33-.35.4.09-.14-.7.68-1.09,1,.12-.13.75-.78,0,0,.17-.21.91-.92,1.44-1.45-.12.14-.94,1-.71.76a1.13,1.13,0,0,0,.18-.2l1.25-1.25c.29-.29-.3.25.53-.57C30.35,26.56,29.29,27.66,30.72,26.23ZM56.13,3.88a10.15,10.15,0,0,1,1.46,0C57.71,3.84,56,3.88,56.13,3.88Zm9.17-.7a13.86,13.86,0,0,0-2.83-1.69A13.6,13.6,0,0,1,65.3,3.18Zm-8.92.66a6.22,6.22,0,0,0-1.22.21,11.55,11.55,0,0,0-1.85.55A10.74,10.74,0,0,1,55.41,4l-.48.08.66-.14C55.88,3.88,56.19,3.86,56.38,3.84ZM62.12,1a6.35,6.35,0,0,1,1,.41s-.37-.2,0,0A12.18,12.18,0,0,1,65.77,3a13,13,0,0,1,3.32,4c.18.36.29.65.32.71a13.69,13.69,0,0,1,1.07,7.7c-.06.46-.22,1.06-.33,1.53-.1.28-.2.72-.32,1s-.33.83-.52,1.2a13.14,13.14,0,0,1-1.55,2.51A23.56,23.56,0,0,1,65.7,24c.14-.17-.26.23-.19.14-.72.73,0,0,0,0-1.32,1.33-2,1.95-2.51,2.54-.4.42-.51.49-.72.71-.39.39-.74.77-1.26,1.25.23-.16-.52.53-.89.93.37-.36.5-.47.73-.68s-.09.05.35-.4l1.25-1.25v0c.6-.6.1-.15.89-1,0,0-.22.24-.17.22.7-.7.92-1,1.43-1.45s1-1,2-2l-1.07,1.1.72-.69c.39-.4-.18.15-.18.16s.32-.32.53-.55.28-.33.89-1a5.74,5.74,0,0,1-.53.6,2.25,2.25,0,0,1-.35.42,12.52,12.52,0,0,0,1.7-2s-.63.85-.81,1,.55-.7.63-.87c.5-.72.08-.1.17-.18a9,9,0,0,0,1-1.55,6.64,6.64,0,0,1-.64,1.17c-.39.61.38-.58.15-.19a9.8,9.8,0,0,1-1.08,1.51,7.14,7.14,0,0,1-.7.81c-.83.86-1.79,1.78-2.69,2.69l-.72.73L59.45,30.4,58,31.82c-3,3-6.18,6.15-9.17,9.11l-.72.7-2,2c-.55.56-.76.76-1.43,1.43s-.48.45-.9.87l-2.88,2.88c-.32.33,0,0,.36-.38-.67.63-1.61,1.62-1.43,1.46-.66.65-1.51,1.49-1.63,1.57-.83.89-2.32,2.29-3,3.07-.33.34-.43.42-.54.52l-.54.55-1.5,1.49-.88.87a8.19,8.19,0,0,1-.95.87,2.25,2.25,0,0,1-.89.36,2.23,2.23,0,0,1-.66,0c-.36-.09-.24-.08-.28-.09a2,2,0,0,1-1.41-1.81,2.22,2.22,0,0,1,.78-1.78l.18-.2c.67-.66,1-1,1.44-1.42s.25-.27.53-.55l2-2,1.61-1.62,1.08-1.09c1.31-1.32,2.65-2.65,3.77-3.77S41,42.68,41.77,42l.71-.73.55-.54,1.43-1.45,3-3,.54-.55c.3-.3.61-.59.9-.89l.71-.73.54-.53.72-.72,4.13-4.13.54-.53c.65-.65,1.47-1.52,2.51-2.52l3-3.06s-.59.6-.53.56c.45-.44.56-.57.71-.74l1.8-1.79c.42-.41.2-.22.53-.56a9.53,9.53,0,0,0,2.77-6,8.71,8.71,0,0,0,0-1.45A9.6,9.6,0,0,0,65,8.27a9.15,9.15,0,0,0-.89-1.14,6.16,6.16,0,0,0-.84-.86,7.77,7.77,0,0,0-.95-.74,9.36,9.36,0,0,0-5.47-1.6,2.3,2.3,0,0,1,.52,0A9.88,9.88,0,0,1,58.5,4a6.63,6.63,0,0,1,1.64.41A8.92,8.92,0,0,1,61.49,5a2.14,2.14,0,0,0,.4.26,5.74,5.74,0,0,1,1.18.84c.24.14-.69-.57-.53-.46a10.07,10.07,0,0,1,2.51,2.63c.16.17-.61-.86-.38-.6a9,9,0,0,1,1.68,3.75c.11.5.12.52.08.25.1.55.09.91.12,1,.06.58,0-.29-.06-.26a9.6,9.6,0,0,1,0,2.28c0,.35-.14.7-.21,1.08a12.26,12.26,0,0,1-.42,1.19,3.15,3.15,0,0,0,.18-.44,9.67,9.67,0,0,1-.88,1.85c-.21.36-.48.69-.71,1l-.75.81-1.07,1.11-1.08,1.06c-.31.3-.34.34-.35.37-.4.4-1,.95-1.08,1.09.14-.12,1-1,1.44-1.43,0,.07.07,0,.54-.51l.36-.36c-.12.1-.41.4-.36.33a23.65,23.65,0,0,0,2.78-3,9.7,9.7,0,0,0,1.42-3,10,10,0,0,0,.28-3.25,9.33,9.33,0,0,0-1-3.66c-.14-.25,0-.08,0,0a10.28,10.28,0,0,0-2.68-3.18l-.41-.28c-.55-.39-1.18-.71-1-.66-.6-.27-.7-.32-.48-.19a3.38,3.38,0,0,0-.67-.29,8.21,8.21,0,0,1,1.39.58c.38.25.59.34.8.51a9.16,9.16,0,0,1,1,.8c.26.27-.62-.57-.58-.48.19.15.54.49.8.71s.37.37.15.1A11.11,11.11,0,0,1,65.1,8.06a3.93,3.93,0,0,1-.45-.6c.18.26.33.49.52.75a5.27,5.27,0,0,0,.3.49,10,10,0,0,1,1.19,4,9.71,9.71,0,0,1-.07,1.71,3.5,3.5,0,0,1,0,.5,9.38,9.38,0,0,1-1.3,3.47A13.69,13.69,0,0,1,63,21c-.19.15.56-.57.89-.92-.63.62-1.31,1.33-1.61,1.65l-6.1,6.09c-.14.12-.54.53-.19.15-.57.56-.43.45-.71.74L51,33l-2.15,2.16-1.44,1.42-.89.91-.72.7L43.6,40.37l-.35.38L42,42c-.6.6-.77.75-1.07,1.09l-1.27,1.24s.33-.32.54-.53c-.18.22-.67.68-1.07,1.08l-7,7-3.59,3.59a2.85,2.85,0,0,0-.69.87A1.94,1.94,0,0,0,28,58.14a2,2,0,0,0,1.11.83,2.17,2.17,0,0,0,.59.07,2,2,0,0,0,1-.36,5.32,5.32,0,0,0,.76-.69l.47-.46c.08-.07-.41.43-.54.55a8.9,8.9,0,0,0,.72-.73c.29-.27.75-.73,1.43-1.41l-.36.35,3.23-3.24c.68-.65,1.43-1.38,2.7-2.66-.11.09-.9.9-.72.68l2.33-2.35,2.16-2.13-.54.54c.4-.36,1.2-1.19.71-.74.41-.41.68-.67.72-.7l4.13-4.14c-.6.63.78-.74,1.08-1.06-.12.08-.9.93-.72.7l5-5c-.05.07.17-.15.18-.15l.54-.56,2.33-2.34L60.45,29l1.08-1.08L64.43,25c1.08-1.11,2.28-2.2,3.16-3.3a13.4,13.4,0,0,0,1.28-2,13.56,13.56,0,0,0,1.52-4.67,13.79,13.79,0,0,0-.57-5.9c-.15-.44-.18-.51-.35-1s-.31-.65-.44-1-.33-.61-.5-.92-.39-.58-.58-.85a12.2,12.2,0,0,0-2.33-2.43A12.86,12.86,0,0,0,62.76,1.3s.3.13.26.1a8,8,0,0,1,.92.48,8.76,8.76,0,0,1,.88.56c.47.31.13.05.26.13-.48-.33-.33-.21-.66-.44A3.26,3.26,0,0,1,64,1.86a6,6,0,0,0-.69-.37A9.63,9.63,0,0,0,62.12,1Zm2.09,18.76a8.45,8.45,0,0,0,.91-1.16C64.82,18.94,64.55,19.34,64.21,19.71ZM65.93,10a11,11,0,0,0-.73-1.53,3,3,0,0,0,.27.53l.34.77C65.53,9.14,66,10.12,65.93,10Zm.46,2.33A7.29,7.29,0,0,0,66,10.46,9.46,9.46,0,0,1,66.39,12.34Zm-2.56,7.54a7.69,7.69,0,0,0,1.31-1.74A9.31,9.31,0,0,1,63.83,19.88ZM59.4,24.56c.25-.23,1.61-1.62,1.25-1.28S59.78,24.17,59.4,24.56ZM47.16,36.61c.48-.46.92-.9,1.25-1.26C48,35.74,47.25,36.49,47.16,36.61ZM41.78,42s.48-.49.53-.55L40.7,43.07C40.53,43.27,41.41,42.38,41.78,42ZM35.52,54c-.57.56-.73.74-.9.92C35.08,54.5,35.55,54,35.52,54Zm.88-1c-.66.67-2.14,2.09-2.33,2.34a4.74,4.74,0,0,0,.53-.54C35.16,54.27,36.34,53.19,36.4,53.06Zm3.94-4c-.34.33-1.1,1.1-1.07,1.1C40,49.51,40.05,49.41,40.34,49.1Zm.37-.34c.49-.49.58-.58,1.08-1.06A12.72,12.72,0,0,0,40.71,48.76Zm7.76-7.53-.72.72C47.48,42.27,48.69,41.05,48.47,41.23Zm2.69-2.7c-.95,1-.56.52-1.44,1.41,0,0,.62-.6.91-.86s-.58.59-.36.39C50.88,38.86,50.94,38.78,51.16,38.53Zm5.77-5.66.71-.71A6,6,0,0,0,56.93,32.87Zm1-1.16c-.51.52-.91.92-1.07,1.1.2-.2.28-.27.36-.34A6,6,0,0,0,58,31.71Zm9.36-9.31a11.07,11.07,0,0,0,1-1.2c.24-.37-.44.6-.65.81-.05.07,0-.06,0,0s-.37.44-.34.39l-.72.76A7.43,7.43,0,0,0,67.34,22.4Zm-1.25,1.33-.9.9C64.92,24.93,66.37,23.48,66.09,23.73Zm-1.63,1.56c.16-.11.93-.93,1.26-1.23-.06,0,.52-.52.53-.56ZM63,26.8c.45-.44.51-.53.89-.92.19-.18,1-.93.9-.9-.21.21-.64.63-1,1A8,8,0,0,0,63,26.8Zm-2.88,2.85c.44-.44.92-.93.89-.93C60.61,29.16,60.13,29.65,60.16,29.65ZM69,7.05a6.15,6.15,0,0,0,.3.7c.22.42.26.55.16.25C69.17,7.35,69.23,7.51,69,7.05ZM66.82,4.1l.33.39L67,4.3a11.05,11.05,0,0,1,1.14,1.41,7.07,7.07,0,0,0-1-1.22C67.23,4.54,67,4.23,66.82,4.1Zm-13.95.62a9,9,0,0,0-2,1.37c-.51.43-.89.8-1.28,1.16a13.34,13.34,0,0,1,2.05-1.86,16,16,0,0,0-1.33,1.13A7,7,0,0,0,51,5.89a9.77,9.77,0,0,1,1.36-1A8.41,8.41,0,0,1,54,4.22a6.81,6.81,0,0,0-1.15.47A11.34,11.34,0,0,1,54.71,4c.34-.09.68-.14,1-.2l.74-.06,0,0a10.36,10.36,0,0,0-1.95.34,3.1,3.1,0,0,1,1-.25,6.61,6.61,0,0,1,1.47-.1,8,8,0,0,1,2,.17,7.36,7.36,0,0,0-1-.11,5.92,5.92,0,0,0-.72-.06c-.36,0-.1,0-.51,0,.07,0,.62,0,1,0a12,12,0,0,0-2.22.15A9.56,9.56,0,0,0,52.87,4.72Zm.21,0-.65.33c.52-.3-.32.16-.21.08A3.71,3.71,0,0,1,53.08,4.72Zm4-.91a8.6,8.6,0,0,1,1.46.13S56.76,3.8,57.12,3.81Z"/></g></g></svg>