<svg id="Layer_1" data-name="Layer 1" xmlns="http://www.w3.org/2000/svg" viewBox="0 0 734.41 265.99"><defs><style>.cls-1{fill:#fff;}</style></defs><path class="cls-1" d="M165.6,33.12c12.17,0,22.47,3.79,29.78,11,6.81,6.68,10.56,16,10.56,26.28,0,13.76-8.57,26.68-21.84,32.91L178.2,106l4.42,4.79c5.41,5.87,8,13,8,21.83a33.65,33.65,0,0,1-10.86,24.82c-7.43,6.93-18,10.74-29.71,10.74h-42V33.12H165.6M122.87,93.51h40.82c19,0,27.45-11.63,27.45-23.15S182.29,47,165.36,47H122.87V93.51m0,60.87h28.41c14,0,24.58-10,24.58-23.16,0-14-10.6-23.86-25.77-23.86H122.87v47m42.73-126H103.3V173h46.79c27.44,0,45.35-18.61,45.35-40.33,0-10.74-3.58-18.86-9.31-25.07,15.75-7.39,24.58-22.43,24.58-37.23,0-23.15-17-42-45.11-42ZM127.65,88.74v-37h37.71c13.61,0,21,8.83,21,18.62,0,10-7.4,18.38-22.68,18.38Zm0,60.86V112.13h22.44c13.6,0,21,8.59,21,19.09,0,10.27-8.12,18.38-19.81,18.38Z"/><path class="cls-1" d="M278.86,78.24a52,52,0,0,1,35.83,14.34l-40.46,57.87L269,158h9.16c14.39,0,25.21-4.4,41.17-27.61v0l0,0,8.56-12.76,10.58,7-8.64,12.24c-9.7,13.88-18.9,23-28.12,28-8.3,4.46-15.9,5.07-22.86,5.07-22.9,0-46.07-15.66-46.07-45.59,0-28.83,23.42-46.06,46.07-46.06m-21.21,73.51,3.62-5.12,33.65-47.49L298.58,94l-6-2.11a41.44,41.44,0,0,0-13.76-2.42c-18.95,0-32.7,14.56-32.7,34.61,0,8.93,2.6,16.82,7.52,22.84l4,4.85m21.21-78.29C253.08,73.46,228,93.27,228,124.3c0,32,24.58,50.37,50.84,50.37,16,0,32.7-3.35,54.89-35.09l11.46-16.23-18.62-12.41-11.21,16.7c-15.76,22.92-25.31,25.54-37.24,25.54l42.73-61.1a56.6,56.6,0,0,0-42-18.62Zm-21.49,70.41c-4.29-5.25-6.44-12.17-6.44-19.81,0-18.85,12.89-29.83,27.93-29.83A36.2,36.2,0,0,1,291,96.38l-33.66,47.49Z"/><path class="cls-1" d="M496.46,78.24c16.38,0,19.81,12.46,19.81,22.91v27.44l-.07,26.3-13.53,13.57V102.82c0-2.83,0-11.46-8.83-11.46-5.66,0-8.34,4.3-10.69,8.14L438.54,164l-12.73-9V102.82c0-2.83,0-11.46-8.83-11.46-5.7,0-8.38,4.37-10.74,8.23l-43.75,69.9L351,162.2l43.74-69.45C403,80,411.92,78.24,419.61,78.24c16.37,0,19.81,12.46,19.81,22.91V144l8.81-14L471.6,92.75c8.22-12.79,17.18-14.51,24.86-14.51m0-4.78c-10.26,0-20.28,3.34-28.88,16.71l-23.39,37.24V101.15c0-16.71-8.11-27.69-24.58-27.69-10.27,0-20.29,3.34-28.88,16.71l-46.31,73.52L364,176.1l46.31-74c2.62-4.29,4.06-6,6.68-6s4.06,1,4.06,6.68v54.71l18.53,13.07h.24l47.34-68.5c2.63-4.29,4.06-6,6.69-6s4.06,1,4.06,6.68V180L521,156.87l.08-28.27V101.15c0-16.71-8.12-27.69-24.59-27.69Z"/><path class="cls-1" d="M373.29,94a15.44,15.44,0,0,1,15.52,15.28c0,8.11-6.93,15-15.52,15-7.88,0-14.8-6.93-14.8-15C358.49,100.93,365.41,94,373.29,94Z"/><path class="cls-1" d="M52.85,236.36V91.72h62.3c28.16,0,45.11,18.85,45.11,42,0,14.8-8.83,29.84-24.58,37.24,5.72,6.2,9.31,14.32,9.31,25.06,0,21.72-17.91,40.34-45.36,40.34ZM77.2,115.11v37h36c15.28,0,22.68-8.35,22.68-18.38,0-9.78-7.4-18.61-21-18.61Zm0,60.38V213h23.63c11.69,0,19.81-8.12,19.81-18.38,0-10.5-7.4-19.1-21-19.1Z"/><path class="cls-1" d="M169.59,223.23l21.24-33.41c10.74-16.95,12.89-27.93,13.13-43.68V139h21v2.39c0,13.85,6,18.62,14.08,18.62,7.88,0,14.32-4.3,14.32-18.14V139h21.49v52L308.5,137.3l19.34,11.94-54.66,87.12H251.46v-58a35.54,35.54,0,0,1-14.56,3.1,33,33,0,0,1-14.09-3.1c-1.67,6-4.53,11.46-9.78,20l-23.87,38Z"/><path class="cls-1" d="M381.65,139v71.61c0,2.15.47,3.1,1.9,3.1,1.2,0,1.68-.23,2.87-2.38l39.16-60.57,17.73,14.37L405.51,224c-7.16,11.22-15,14.08-25.06,14.08C364.94,238,359,227.29,359,215.59v-32.7L324.12,239,305.5,226.81,360.4,139Z"/><path class="cls-1" d="M531.43,65.46c20.05,0,33.66,10.26,33.66,29.36,0,12.89-6.69,22.2-18.14,36.52l-26,32.22V210.1c0,2.15.48,3.11,1.91,3.11,1.19,0,1.67-.24,2.86-2.39l45.83-72.08,19.34,12.17L544.8,223.47c-7.16,11.22-15,14.08-25.06,14.08-15.52,0-21.49-10.74-21.49-22.43V187.43L461.74,238,444.07,224.9l54.18-73V101C498.25,79.54,510.91,65.46,531.43,65.46Zm-10.5,64.21,14.32-19.34c3.34-4.53,6.45-9.78,6.45-13.84,0-6.45-4.78-10.26-10.27-10.26A10.64,10.64,0,0,0,520.93,97Z"/><path class="cls-1" d="M657,65.46c20,0,33.66,10.26,33.66,29.36,0,12.89-6.68,22.2-18.14,36.52l-26,32.22V210.1c0,2.15.48,3.11,1.91,3.11,1.19,0,1.67-.24,2.86-2.39l45.83-72.08,19.34,12.17-46.07,72.56c-7.16,11.22-15,14.08-25.06,14.08-15.52,0-21.48-10.74-21.48-22.43V187.43L587.29,238,569.62,224.9l54.19-73V101C623.81,79.54,636.46,65.46,657,65.46Zm-10.5,64.21,14.32-19.34c3.34-4.53,6.45-9.78,6.45-13.84,0-6.45-4.78-10.26-10.27-10.26A10.64,10.64,0,0,0,646.48,97Z"/></svg>