<svg id="Layer_1" data-name="Layer 1" xmlns="http://www.w3.org/2000/svg" viewBox="0 0 734.41 265.99"><defs><style>.cls-1{fill:#fff;}</style></defs><path class="cls-1" d="M115.15,96.49c12.17,0,22.47,3.79,29.77,11,6.82,6.68,10.57,16,10.57,26.27,0,13.77-8.58,26.69-21.84,32.92l-5.9,2.77,4.42,4.79c5.41,5.86,8,13,8,21.82a33.63,33.63,0,0,1-10.86,24.82c-7.43,6.93-18,10.75-29.72,10.75h-42V96.49h57.52M72.42,156.88h40.82c19,0,27.45-11.63,27.45-23.16s-8.86-23.39-25.78-23.39H72.42v46.55m0,60.86h28.41c14,0,24.58-10,24.58-23.15,0-14.05-10.6-23.87-25.78-23.87H72.42v47m42.73-126H52.85V236.36H99.63c27.45,0,45.36-18.62,45.36-40.34,0-10.74-3.59-18.86-9.31-25.06,15.75-7.4,24.58-22.44,24.58-37.24,0-23.15-16.95-42-45.11-42ZM77.2,152.1v-37h37.71c13.61,0,21,8.83,21,18.61,0,10-7.4,18.38-22.68,18.38Zm0,60.87V175.49H99.63c13.61,0,21,8.6,21,19.1,0,10.26-8.12,18.38-19.81,18.38Z"/><path class="cls-1" d="M270.07,143.75v63.87l8.82-14.08L310,143.86l11.21,6.92-50.7,80.81H256.23V171l-6.73,3a30.86,30.86,0,0,1-12.6,2.69A28,28,0,0,1,224.85,174l-5.11-2.41-1.52,5.44c-1.43,5.09-3.76,9.84-9.25,18.82l-21.24,33.77-11.62-7.8,18.75-29.49c11.34-17.89,13.63-30,13.87-46.16v-2.46h11.51c.9,18.21,12,21,18.8,21,5.56,0,18.26-2.09,19.06-21h12m38.43-6.45L274.85,191V139H253.36v2.87c0,13.84-6.44,18.14-14.32,18.14-8.11,0-14.08-4.77-14.08-18.62V139H204v7.17c-.24,15.75-2.39,26.73-13.13,43.68l-21.24,33.41,19.57,13.13,23.87-38c5.25-8.59,8.11-14.08,9.78-20a33,33,0,0,0,14.09,3.1,35.54,35.54,0,0,0,14.56-3.1v58h21.72l54.66-87.12L308.5,137.3Z"/><path class="cls-1" d="M376.87,143.75v66.83c0,7.5,5.57,7.88,6.68,7.88,3.95,0,5.68-2.42,7-4.72l43.22-68.42L445,152.4l-43.5,69c-6.31,9.89-12.73,11.88-21,11.88-14.54,0-16.71-11.07-16.71-17.67V166.16l-8.83,14.21-32.27,51.95L312,225.38l51-81.63h13.82m55.38-5L386.42,211.3c-1.19,2.15-1.67,2.38-2.87,2.38-1.43,0-1.9-1-1.9-3.1V139H360.4l-54.9,87.84L324.12,239,359,182.89v32.7c0,11.7,6,22.44,21.48,22.44,10,0,17.9-2.86,25.06-14.08l46.07-73-19.33-12.17Z"/><path class="cls-1" d="M531.43,70.23c8.69,0,28.88,2.4,28.88,24.59,0,11-5.47,19-17.08,33.52l-26,32.22-1.06,1.31V210.1c0,7.5,5.56,7.88,6.68,7.88,3.94,0,5.67-2.41,7-4.71l43.2-68,11.26,7.09-43.5,68.5c-6.31,9.89-12.73,11.88-21,11.88-14.54,0-16.71-11.07-16.71-17.66V172.66l-8.65,12L460.7,231.31l-9.95-7.39,51.34-69.21.94-1.27V101c0-9.38,2.64-17.19,7.62-22.6s12.14-8.19,20.78-8.19m-15.27,73.9,8.61-11.62,14.32-19.35c5-6.73,7.38-12.19,7.38-16.67a14.71,14.71,0,0,0-15-15A15.41,15.41,0,0,0,516.16,97v47.16m15.27-78.67c-20.52,0-33.18,14.08-33.18,35.56v50.84l-54.18,73L461.74,238l36.51-50.6v27.69c0,11.69,6,22.43,21.49,22.43,10,0,17.9-2.86,25.06-14.08l46.07-72.56-19.34-12.17L525.7,210.82c-1.19,2.15-1.67,2.39-2.86,2.39-1.43,0-1.91-1-1.91-3.11V163.56l26-32.22c11.45-14.32,18.14-23.63,18.14-36.52,0-19.1-13.61-29.36-33.66-29.36Zm-10.5,64.21V97a10.64,10.64,0,0,1,10.5-10.74c5.49,0,10.27,3.81,10.27,10.26,0,4.06-3.11,9.31-6.45,13.84l-14.32,19.34Z"/><path class="cls-1" d="M657,70.23c8.69,0,28.88,2.4,28.88,24.59,0,11-5.47,19-17.08,33.52l-26,32.22-1.06,1.31V210.1c0,7.5,5.56,7.88,6.68,7.88,3.94,0,5.67-2.41,7-4.71l43.2-68,11.26,7.09-43.49,68.5c-6.32,9.89-12.73,11.88-21,11.88-14.54,0-16.71-11.07-16.71-17.66V172.66l-8.65,12-33.68,46.67-10-7.39,51.34-69.21.94-1.27V101c0-9.38,2.64-17.19,7.62-22.6s12.14-8.19,20.78-8.19m-15.27,73.9,8.61-11.62,14.33-19.35c5-6.73,7.37-12.19,7.37-16.67a14.71,14.71,0,0,0-15-15A15.41,15.41,0,0,0,641.71,97v47.16M657,65.46c-20.52,0-33.17,14.08-33.17,35.56v50.84l-54.19,73L587.29,238l36.52-50.6v27.69c0,11.69,6,22.43,21.48,22.43,10,0,17.9-2.86,25.06-14.08l46.07-72.56-19.34-12.17-45.83,72.08c-1.19,2.15-1.67,2.39-2.86,2.39-1.43,0-1.91-1-1.91-3.11V163.56l26-32.22C684,117,690.64,107.71,690.64,94.82c0-19.1-13.61-29.36-33.66-29.36Zm-10.5,64.21V97A10.64,10.64,0,0,1,657,86.23c5.49,0,10.27,3.81,10.27,10.26,0,4.06-3.11,9.31-6.45,13.84l-14.32,19.34Z"/><path class="cls-1" d="M103.3,173V28.35h62.3c28.16,0,45.11,18.86,45.11,42,0,14.8-8.83,29.84-24.58,37.23,5.73,6.21,9.31,14.33,9.31,25.07,0,21.72-17.91,40.33-45.35,40.33ZM127.65,51.74v37h36c15.28,0,22.68-8.36,22.68-18.38,0-9.79-7.4-18.62-21-18.62Zm0,60.39V149.6h23.63c11.69,0,19.81-8.11,19.81-18.38,0-10.5-7.4-19.09-21-19.09Z"/><path class="cls-1" d="M278.14,153.18c11.93,0,21.48-2.62,37.23-25.54l11.22-16.7,18.62,12.41-11.46,16.23c-22.19,31.74-38.9,35.09-54.89,35.09-26.26,0-50.84-18.38-50.84-50.37,0-31,25.06-50.84,50.84-50.84a56.6,56.6,0,0,1,42,18.62Zm-20.77-9.31L291,96.38a36.2,36.2,0,0,0-12.17-2.15c-15,0-27.93,11-27.93,29.83C250.93,131.7,253.08,138.62,257.37,143.87Z"/><path class="cls-1" d="M521,156.87,497.9,180V102.82c0-5.73-1.44-6.68-4.06-6.68s-4.06,1.67-6.69,6l-47.34,68.5h-.24L421,157.53V102.82c0-5.73-1.43-6.68-4.06-6.68s-4.06,1.67-6.68,6L364,176.1l-19.57-12.41,46.31-73.52c8.59-13.37,18.61-16.71,28.88-16.71,16.47,0,24.58,11,24.58,27.69v26.26l23.39-37.24c8.6-13.37,18.62-16.71,28.88-16.71,16.47,0,24.59,11,24.59,27.69V128.6Z"/><path class="cls-1" d="M373.29,98.79A10.64,10.64,0,0,1,384,109.29c0,5.56-4.92,10.26-10.74,10.26a10.4,10.4,0,0,1-10-10.26c0-5.6,4.68-10.5,10-10.5m0-4.78c-7.88,0-14.8,6.92-14.8,15.28,0,8.11,6.92,15,14.8,15,8.59,0,15.52-6.93,15.52-15A15.44,15.44,0,0,0,373.29,94Z"/></svg>