<svg width="508" height="487" viewBox="0 0 508 487" fill="none" xmlns="http://www.w3.org/2000/svg">
<path d="M16.4087 331.475C-28.3913 270.675 35.0754 146.142 72.4087 91.4752C80.4087 83.4752 100.409 72.2752 116.409 91.4752C136.409 115.475 144.409 123.475 216.409 91.4752C240.409 59.4752 244.409 51.4752 272.409 19.4752C300.409 -12.5248 344.409 3.47521 388.409 19.4752C432.409 35.4752 436.409 67.4752 408.409 123.475C380.409 179.475 408.409 171.475 464.409 211.475C520.409 251.475 504.409 275.475 504.409 351.475C504.409 427.475 452.409 431.475 408.409 463.475C364.409 495.475 288.409 483.475 244.409 483.475C200.409 483.475 188.409 443.475 144.409 463.475C100.409 483.475 72.4087 407.475 16.4087 331.475Z" fill="#C4C4C4" stroke="black"/>
</svg>
