<svg width="476" height="458" viewBox="0 0 476 458" fill="none" xmlns="http://www.w3.org/2000/svg">
<path d="M8 270C-4.8 230 2.66667 192.667 8 179C16 171 26 179 38 168C50 157 62 155 74 143C86 131 90 128 96 114C102 100 104 89 96 69C88 49 86 47 85 29C84 11 100 -4.00002 118 1.99998C136 7.99998 181 11 188 21C195 31 244 34 266 21C288 7.99999 298 3.99999 319 11C340 18 356 33 370 56C384 79 382 79 392 105C402 131 407 116 430 143C453 170 453 171 460 187C467 203 470 205 474 233C478 261 474 255 460 255C446 255 416 305 424 316C432 327 422 328 424 357C426 386 416 372 407 383C398 394 390 394 370 397C350 400 343 411 325 425C307 439 309 438 292 443C275 448 261 448 219 438C177 428 188 443 167 448C146 453 99 468 62 443C25 418 51 389 45 367C39 345 24 320 8 270Z" fill="#C4C4C4" stroke="black"/>
</svg>
