<svg id="Layer_1" data-name="Layer 1" xmlns="http://www.w3.org/2000/svg" xmlns:xlink="http://www.w3.org/1999/xlink" viewBox="0 0 1237.22 333.95"><defs><style>.cls-1{fill:url(#linear-gradient);}.cls-2{fill:#fff;}.cls-3{fill:url(#linear-gradient-2);}.cls-4{opacity:0.1;}.cls-5{mask:url(#mask);}.cls-6{opacity:0.25;font-size:12px;font-family:SourceCodePro-Regular, Source Code Pro;letter-spacing:0.15em;}</style><linearGradient id="linear-gradient" x1="540" y1="163.22" x2="540" y2="336.21" gradientUnits="userSpaceOnUse"><stop offset="0" stop-color="#fff"/><stop offset="0.01" stop-color="#f6f6f6"/><stop offset="0.05" stop-color="#c8c8c8"/><stop offset="0.09" stop-color="#9d9d9d"/><stop offset="0.14" stop-color="#777"/><stop offset="0.2" stop-color="#575757"/><stop offset="0.25" stop-color="#3b3b3b"/><stop offset="0.32" stop-color="#252525"/><stop offset="0.4" stop-color="#141414"/><stop offset="0.49" stop-color="#090909"/><stop offset="0.63" stop-color="#020202"/><stop offset="1"/></linearGradient><linearGradient id="linear-gradient-2" x1="29.89" y1="-62.22" x2="29.89" y2="-36.22" xlink:href="#linear-gradient"/><mask id="mask" x="-0.07" y="-64.49" width="1237.3" height="398.43" maskUnits="userSpaceOnUse"><g transform="translate(3.04 -2.26)"><rect class="cls-1" y="163.22" width="1080" height="172.99"/><rect class="cls-2" width="1080" height="163.22"/><path class="cls-3" d="M29.89-36.22c16.73,0,16.76-26,0-26s-16.76,26,0,26Z"/><g class="cls-4"><path class="cls-2" d="M24.56,244.67c16.73,0,16.75-26,0-26s-16.76,26,0,26Z"/></g><g class="cls-4"><path class="cls-2" d="M22.78,258c16.73,0,16.76-26,0-26s-16.76,26,0,26Z"/></g><g class="cls-4"><path class="cls-2" d="M36.11,265.11c16.73,0,16.76-26,0-26s-16.76,26,0,26Z"/></g><g class="cls-4"><path class="cls-2" d="M29.33,263.12l.89,1.77a9.73,9.73,0,0,0,3.35,3.65A9.74,9.74,0,0,0,38,270.87a9.82,9.82,0,0,0,5.18.23A9.74,9.74,0,0,0,48,269.56l2.63-2A13.08,13.08,0,0,0,54,261.79l.46-3.46a12.84,12.84,0,0,0-1.77-6.56L51.78,250a9.78,9.78,0,0,0-3.35-3.64A9.74,9.74,0,0,0,44,244a9.82,9.82,0,0,0-5.18-.23A9.74,9.74,0,0,0,34,245.33l-2.63,2A13.08,13.08,0,0,0,28,253.1l-.46,3.46a12.84,12.84,0,0,0,1.77,6.56Z"/></g><g class="cls-4"><path class="cls-2" d="M37,278.44c16.73,0,16.76-26,0-26s-16.76,26,0,26Z"/></g><g class="cls-4"><path class="cls-2" d="M37.59,217.14,34,220.7a9.73,9.73,0,0,0-2.69,4.18,11.77,11.77,0,0,0,0,10A9.79,9.79,0,0,0,34,239.08a13.08,13.08,0,0,0,9.19,3.81,13.54,13.54,0,0,0,9.19-3.81L56,235.53a9.83,9.83,0,0,0,2.69-4.19,11.77,11.77,0,0,0,0-10A9.79,9.79,0,0,0,56,217.14a13.13,13.13,0,0,0-9.19-3.81,13.54,13.54,0,0,0-9.19,3.81Z"/></g><g class="cls-4"><path class="cls-2" d="M7.1,221.54a2.62,2.62,0,0,1-.24.34l2-2.63a4.11,4.11,0,0,1-.59.59l2.63-2a5.27,5.27,0,0,1-.88.53l3.1-1.31a5,5,0,0,1-1,.28l3.46-.46a4.61,4.61,0,0,1-.83,0,9.81,9.81,0,0,0-5,1.12,9.73,9.73,0,0,0-4.18,2.69,9.7,9.7,0,0,0-2.69,4.18,9.81,9.81,0,0,0-1.12,5l.46,3.46a13,13,0,0,0,3.35,5.73l2.63,2a13,13,0,0,0,6.56,1.77h.62a26.47,26.47,0,0,0,3.87-.52,5.9,5.9,0,0,0,.6-.17,27.46,27.46,0,0,0,3.49-1.48,17.28,17.28,0,0,0,6.19-6,14.64,14.64,0,0,0,1.31-10,9.74,9.74,0,0,0-2.33-4.42,9.78,9.78,0,0,0-3.64-3.35,13.16,13.16,0,0,0-10-1.31l-3.11,1.31a13.09,13.09,0,0,0-4.66,4.66Z"/></g><g class="cls-4"><path class="cls-2" d="M1.15,228.17A66.24,66.24,0,0,0,.07,245.88c.62,6.76,5.55,13.34,13,13,6.52-.29,13.66-5.75,13-13a55.84,55.84,0,0,1-.22-6.6c0-1.1.13-2.19.21-3.29.2-2.86-.38,2.17.16-.91,1.19-6.67-1.8-14.33-9.08-16-6.34-1.44-14.71,1.92-16,9.08Z"/></g><g class="cls-4"><path class="cls-2" d="M5.09,268a9.14,9.14,0,0,1,.4,1.72L5,266.21A11.62,11.62,0,0,1,5,268l.46-3.46a9.25,9.25,0,0,1-.6,2.13l1.32-3.1a9.66,9.66,0,0,1-.92,1.51c-1.88,2.54-2.11,7.11-1.31,10a13.27,13.27,0,0,0,6,7.77,13.13,13.13,0,0,0,10,1.31l3.11-1.31a13.11,13.11,0,0,0,4.66-4.67A19.51,19.51,0,0,0,30,273.56a10.43,10.43,0,0,0,.59-2.12A21,21,0,0,0,30.16,261a13.82,13.82,0,0,0-6-7.77A13,13,0,0,0,6.4,257.93c-1.59,3-2.43,6.7-1.31,10Z"/></g><g class="cls-4"><path class="cls-2" d="M9.44,309.56c16.73,0,16.76-26,0-26s-16.75,26,0,26Z"/></g><g class="cls-4"><path class="cls-2" d="M56.56,270.44c16.73,0,16.75-26,0-26s-16.76,26,0,26Z"/></g><g class="cls-4"><path class="cls-2" d="M1020.11,267.78c16.73,0,16.76-26,0-26s-16.76,26,0,26Z"/></g><g class="cls-4"><path class="cls-2" d="M1013.59,272.86l.88.89a13.36,13.36,0,0,0,18.39,0l2-2.63a13,13,0,0,0,1.78-6.56l-.47-3.46a13.08,13.08,0,0,0-3.34-5.74l-.89-.89a13.39,13.39,0,0,0-18.38,0l-2,2.64a13,13,0,0,0-1.77,6.56l.46,3.45a13,13,0,0,0,3.35,5.74Z"/></g><g class="cls-4"><path class="cls-2" d="M1030.78,282.89c16.73,0,16.76-26,0-26s-16.76,26,0,26Z"/></g><g class="cls-4"><path class="cls-2" d="M1037.89,286.44c16.73,0,16.76-26,0-26s-16.76,26,0,26Z"/></g><g class="cls-4"><path class="cls-2" d="M1045.89,291.78c16.73,0,16.76-26,0-26s-16.76,26,0,26Z"/></g><g class="cls-4"><path class="cls-2" d="M1041.08,291.82l2.67,1.78a9.67,9.67,0,0,0,4.83,1.54,13.32,13.32,0,0,0,13-6.21l1.31-3.1a13.11,13.11,0,0,0,0-6.92l-1.31-3.1a13,13,0,0,0-4.66-4.66l-2.67-1.78a9.57,9.57,0,0,0-4.83-1.54,13.3,13.3,0,0,0-12.95,6.2l-1.31,3.11a13.07,13.07,0,0,0,0,6.91l1.31,3.1a13,13,0,0,0,4.66,4.67Z"/></g><g class="cls-4"><path class="cls-2" d="M1055.67,280.22c16.73,0,16.75-26,0-26s-16.76,26,0,26Z"/></g><g class="cls-4"><path class="cls-2" d="M1044.11,258.89c16.73,0,16.76-26,0-26s-16.76,26,0,26Z"/></g><g class="cls-4"><path class="cls-2" d="M1044.7,262.19l1.77,1.78a13.36,13.36,0,0,0,18.39,0l2-2.63a13,13,0,0,0,1.78-6.56l-.47-3.46a13,13,0,0,0-3.34-5.73l-1.78-1.78a9.7,9.7,0,0,0-4.18-2.69,11.77,11.77,0,0,0-10,0,9.64,9.64,0,0,0-4.18,2.69l-2,2.63a13,13,0,0,0-1.77,6.56l.46,3.46a13,13,0,0,0,3.35,5.73Z"/></g><g class="cls-4"><path class="cls-2" d="M1067.22,287.33c16.73,0,16.76-26,0-26s-16.76,26,0,26Z"/></g><g class="cls-4"><path class="cls-2" d="M1070.47,308.41l.89.89a13.38,13.38,0,0,0,18.39,0l2-2.63a12.92,12.92,0,0,0,1.78-6.56l-.47-3.45a13,13,0,0,0-3.34-5.74l-.89-.89a13.38,13.38,0,0,0-18.39,0l-2,2.63a12.94,12.94,0,0,0-1.77,6.56l.46,3.46a13,13,0,0,0,3.34,5.73Z"/></g><g class="cls-4"><path class="cls-2" d="M1074.33,318.44c16.73,0,16.76-26,0-26s-16.75,26,0,26Z"/></g></g></mask></defs><g class="cls-5"><text class="cls-6" transform="translate(0 9.96)">00011001110000010000111111101100100100100010001001000000110100111100100100001101110011100100000001110000110010101011000011111111<tspan x="0" y="16">01001000001011111111000111010110101010101110110011101100000110111000001010111101000111011110110000011100110100000101001010000001</tspan><tspan x="0" y="32">10001011011010101110111001001000111101110111001000101100000100010110110010001110010111010110110110010010011000111110001110001111</tspan><tspan x="0" y="48">01110010001110001010011001001001001110001000001110000010010010100110110111101101000000001011010000100011001110100010100110011000</tspan><tspan x="0" y="64">10101000010010010000010101110101001100000010010111000101000011000010000001101101101010110001100110110011111100011001110001111111</tspan><tspan x="0" y="80">11011111111001100111011000101000000000011100111101110001001001110100101001010000011100001011110101000101111110000100000010110100</tspan><tspan x="0" y="96">10001011000110110011110100110000011110101111001001010001101001011100011010101011111101000001000000011010110011001111001100000011</tspan><tspan x="0" y="112">01111000001010111010000100100011010001101101011111111011001101111000010100111010101011110100111110111001110010111111100111011011</tspan><tspan x="0" y="128">00111111010011111100001100010101111011110110011111010110101101101001101110101010000111001101001110001000010001010100100011110110</tspan><tspan x="0" y="144">01010010111110000000111110111111111101100101110111100010100110100100001011010101111011000101101000001000001101110111011001010000</tspan><tspan x="0" y="160">10100101011111101101110111010111001100110000001010000010010001111111110010010100110001101011111000101011100111100111111001110100</tspan><tspan x="0" y="176">01001000011111001101101000101111101011110010000100011101111100011110111100111110000101011100001000001011101000101110010111101101</tspan><tspan x="0" y="192">11101110001111111000001010011100101101001111011001011010111111000001111001001100000111100110110001011110010110010101000000101111</tspan><tspan x="0" y="208">1001100100110001010011100101110001111101000010000011110001011011000010100011101011011101100010001010000001110011001011000111</tspan><tspan x="0" y="224">0101100111101110101010011100001000100011100110010000101011110111011000010101111111000001001101110001001100100100010011000111</tspan><tspan x="0" y="240">0100011100110100100000110011110011110011111000110001100010000101010000010110011011101000111011001010000001101111011010101111</tspan><tspan x="0" y="256">0101100110000100011111011000111011010010010110100111111111101110101110101100000000000111110010111110100001011101000100110000</tspan><tspan x="0" y="272">0001110111101011000100101001100101000111011011000011111001100010100100000110100101101100000011100000000000011100000100000011</tspan><tspan x="0" y="288">0010100011111011101100100001110101111010100110110000000000010001100100010011111101001001110110100100111000001110100110100110</tspan><tspan x="0" y="304">0011111100100010110011110100110000111111011110001001100011001101111000101111101001110010001001000101001110001110011000001010</tspan><tspan x="0" y="320">0101111111100101001111001010110010110001111000101011001110100010011011111101001101011001001111000011001110110000001000111100</tspan></text></g></svg>